<?xml version="1.0" encoding="utf-8" standalone="no"?>
<!DOCTYPE svg PUBLIC "-//W3C//DTD SVG 1.1//EN"
  "http://www.w3.org/Graphics/SVG/1.1/DTD/svg11.dtd">
<!-- Created with matplotlib (http://matplotlib.org/) -->
<svg height="720pt" version="1.1" viewBox="0 0 720 720" width="720pt" xmlns="http://www.w3.org/2000/svg" xmlns:xlink="http://www.w3.org/1999/xlink">
 <defs>
  <style type="text/css">
*{stroke-linecap:butt;stroke-linejoin:round;}
  </style>
 </defs>
 <g id="figure_1">
  <g id="patch_1">
   <path d="M 0 720 
L 720 720 
L 720 0 
L 0 0 
z
" style="fill:#ffffff;"/>
  </g>
  <g id="axes_1">
   <g id="patch_2">
    <path d="M 90 630 
L 648 630 
L 648 86.4 
L 90 86.4 
z
" style="fill:#ffffff;"/>
   </g>
   <g id="PathCollection_1">
    <defs>
     <path d="M 0 5 
C 1.326016 5 2.597899 4.473168 3.535534 3.535534 
C 4.473168 2.597899 5 1.326016 5 0 
C 5 -1.326016 4.473168 -2.597899 3.535534 -3.535534 
C 2.597899 -4.473168 1.326016 -5 0 -5 
C -1.326016 -5 -2.597899 -4.473168 -3.535534 -3.535534 
C -4.473168 -2.597899 -5 -1.326016 -5 0 
C -5 1.326016 -4.473168 2.597899 -3.535534 3.535534 
C -2.597899 4.473168 -1.326016 5 0 5 
z
" id="C0_0_4378eb9da4"/>
    </defs>
    <g clip-path="url(#pf07c661c11)">
     <use style="fill:none;stroke:#3778bf;" x="193.632651" xlink:href="#C0_0_4378eb9da4" y="186.170452"/>
    </g>
    <g clip-path="url(#pf07c661c11)">
     <use style="fill:none;stroke:#3778bf;" x="612.42199" xlink:href="#C0_0_4378eb9da4" y="541.337256"/>
    </g>
    <g clip-path="url(#pf07c661c11)">
     <use style="fill:none;stroke:#3778bf;" x="117.024845" xlink:href="#C0_0_4378eb9da4" y="135.804952"/>
    </g>
    <g clip-path="url(#pf07c661c11)">
     <use style="fill:none;stroke:#3778bf;" x="157.882342" xlink:href="#C0_0_4378eb9da4" y="168.571483"/>
    </g>
    <g clip-path="url(#pf07c661c11)">
     <use style="fill:none;stroke:#3778bf;" x="530.706997" xlink:href="#C0_0_4378eb9da4" y="500.176046"/>
    </g>
    <g clip-path="url(#pf07c661c11)">
     <use style="fill:none;stroke:#3778bf;" x="479.635126" xlink:href="#C0_0_4378eb9da4" y="448.193063"/>
    </g>
    <g clip-path="url(#pf07c661c11)">
     <use style="fill:none;stroke:#3778bf;" x="295.776392" xlink:href="#C0_0_4378eb9da4" y="280.609653"/>
    </g>
    <g clip-path="url(#pf07c661c11)">
     <use style="fill:none;stroke:#3778bf;" x="127.239219" xlink:href="#C0_0_4378eb9da4" y="146.895879"/>
    </g>
    <g clip-path="url(#pf07c661c11)">
     <use style="fill:none;stroke:#3778bf;" x="198.739838" xlink:href="#C0_0_4378eb9da4" y="194.984248"/>
    </g>
    <g clip-path="url(#pf07c661c11)">
     <use style="fill:none;stroke:#3778bf;" x="270.240457" xlink:href="#C0_0_4378eb9da4" y="263.731832"/>
    </g>
    <g clip-path="url(#pf07c661c11)">
     <use style="fill:none;stroke:#3778bf;" x="147.667967" xlink:href="#C0_0_4378eb9da4" y="159.898047"/>
    </g>
    <g clip-path="url(#pf07c661c11)">
     <use style="fill:none;stroke:#3778bf;" x="168.096716" xlink:href="#C0_0_4378eb9da4" y="171.223014"/>
    </g>
    <g clip-path="url(#pf07c661c11)">
     <use style="fill:none;stroke:#3778bf;" x="515.385435" xlink:href="#C0_0_4378eb9da4" y="463.464554"/>
    </g>
    <g clip-path="url(#pf07c661c11)">
     <use style="fill:none;stroke:#3778bf;" x="397.920133" xlink:href="#C0_0_4378eb9da4" y="369.18714"/>
    </g>
    <g clip-path="url(#pf07c661c11)">
     <use style="fill:none;stroke:#3778bf;" x="147.667967" xlink:href="#C0_0_4378eb9da4" y="159.898047"/>
    </g>
    <g clip-path="url(#pf07c661c11)">
     <use style="fill:none;stroke:#3778bf;" x="265.13327" xlink:href="#C0_0_4378eb9da4" y="258.547483"/>
    </g>
    <g clip-path="url(#pf07c661c11)">
     <use style="fill:none;stroke:#3778bf;" x="270.240457" xlink:href="#C0_0_4378eb9da4" y="263.731832"/>
    </g>
    <g clip-path="url(#pf07c661c11)">
     <use style="fill:none;stroke:#3778bf;" x="454.099191" xlink:href="#C0_0_4378eb9da4" y="414.239778"/>
    </g>
    <g clip-path="url(#pf07c661c11)">
     <use style="fill:none;stroke:#3778bf;" x="566.457306" xlink:href="#C0_0_4378eb9da4" y="525.334698"/>
    </g>
    <g clip-path="url(#pf07c661c11)">
     <use style="fill:none;stroke:#3778bf;" x="556.242932" xlink:href="#C0_0_4378eb9da4" y="509.921318"/>
    </g>
    <g clip-path="url(#pf07c661c11)">
     <use style="fill:none;stroke:#3778bf;" x="489.8495" xlink:href="#C0_0_4378eb9da4" y="442.940433"/>
    </g>
    <g clip-path="url(#pf07c661c11)">
     <use style="fill:none;stroke:#3778bf;" x="438.77763" xlink:href="#C0_0_4378eb9da4" y="406.699715"/>
    </g>
    <g clip-path="url(#pf07c661c11)">
     <use style="fill:none;stroke:#3778bf;" x="464.313565" xlink:href="#C0_0_4378eb9da4" y="437.11501"/>
    </g>
    <g clip-path="url(#pf07c661c11)">
     <use style="fill:none;stroke:#3778bf;" x="510.278248" xlink:href="#C0_0_4378eb9da4" y="502.813829"/>
    </g>
    <g clip-path="url(#pf07c661c11)">
     <use style="fill:none;stroke:#3778bf;" x="571.564493" xlink:href="#C0_0_4378eb9da4" y="524.056089"/>
    </g>
    <g clip-path="url(#pf07c661c11)">
     <use style="fill:none;stroke:#3778bf;" x="546.028558" xlink:href="#C0_0_4378eb9da4" y="491.211397"/>
    </g>
    <g clip-path="url(#pf07c661c11)">
     <use style="fill:none;stroke:#3778bf;" x="438.77763" xlink:href="#C0_0_4378eb9da4" y="406.699715"/>
    </g>
    <g clip-path="url(#pf07c661c11)">
     <use style="fill:none;stroke:#3778bf;" x="260.026083" xlink:href="#C0_0_4378eb9da4" y="235.020191"/>
    </g>
    <g clip-path="url(#pf07c661c11)">
     <use style="fill:none;stroke:#3778bf;" x="413.241694" xlink:href="#C0_0_4378eb9da4" y="377.046332"/>
    </g>
    <g clip-path="url(#pf07c661c11)">
     <use style="fill:none;stroke:#3778bf;" x="173.203903" xlink:href="#C0_0_4378eb9da4" y="184.867908"/>
    </g>
   </g>
   <g id="PolyCollection_1">
    <defs>
     <path d="M 117.024845 -608.890909 
L 117.024845 -545.48594 
L 122.132032 -541.134658 
L 127.239219 -536.783377 
L 132.346406 -532.432096 
L 137.453593 -528.080814 
L 142.56078 -523.729533 
L 147.667967 -519.378252 
L 152.775154 -515.026971 
L 157.882342 -510.675689 
L 162.989529 -506.324408 
L 168.096716 -501.973127 
L 173.203903 -497.621845 
L 178.31109 -493.270564 
L 183.418277 -488.919283 
L 188.525464 -484.568001 
L 193.632651 -480.21672 
L 198.739838 -475.865439 
L 203.847025 -471.514158 
L 208.954212 -467.162876 
L 214.061399 -462.811595 
L 219.168586 -458.460314 
L 224.275773 -454.109032 
L 229.38296 -449.757751 
L 234.490147 -445.40647 
L 239.597334 -441.055188 
L 244.704521 -436.703907 
L 249.811709 -432.352626 
L 254.918896 -428.001345 
L 260.026083 -423.650063 
L 265.13327 -419.298782 
L 270.240457 -414.947501 
L 275.347644 -410.596219 
L 280.454831 -406.244938 
L 285.562018 -401.893657 
L 290.669205 -397.542375 
L 295.776392 -393.191094 
L 300.883579 -388.839813 
L 305.990766 -384.488532 
L 311.097953 -380.13725 
L 316.20514 -375.785969 
L 321.312327 -371.434688 
L 326.419514 -367.083406 
L 331.526701 -362.732125 
L 336.633888 -358.380844 
L 341.741076 -354.029562 
L 346.848263 -349.678281 
L 351.95545 -345.327 
L 357.062637 -340.975719 
L 362.169824 -336.624437 
L 367.277011 -332.273156 
L 372.384198 -327.921875 
L 377.491385 -323.570593 
L 382.598572 -319.219312 
L 387.705759 -314.868031 
L 392.812946 -310.516749 
L 397.920133 -306.165468 
L 403.02732 -301.814187 
L 408.134507 -297.462906 
L 413.241694 -293.111624 
L 418.348881 -288.760343 
L 423.456068 -284.409062 
L 428.563255 -280.05778 
L 433.670443 -275.706499 
L 438.77763 -271.355218 
L 443.884817 -267.003936 
L 448.992004 -262.652655 
L 454.099191 -258.301374 
L 459.206378 -253.950093 
L 464.313565 -249.598811 
L 469.420752 -245.24753 
L 474.527939 -240.896249 
L 479.635126 -236.544967 
L 484.742313 -232.193686 
L 489.8495 -227.842405 
L 494.956687 -223.491123 
L 500.063874 -219.139842 
L 505.171061 -214.788561 
L 510.278248 -210.43728 
L 515.385435 -206.085998 
L 520.492623 -201.734717 
L 525.59981 -197.383436 
L 530.706997 -193.032154 
L 535.814184 -188.680873 
L 540.921371 -184.329592 
L 546.028558 -179.97831 
L 551.135745 -175.627029 
L 556.242932 -171.275748 
L 561.350119 -166.924467 
L 566.457306 -162.573185 
L 571.564493 -158.221904 
L 576.67168 -153.870623 
L 581.778867 -149.519341 
L 586.886054 -145.16806 
L 591.993241 -140.816779 
L 597.100428 -136.465497 
L 602.207615 -132.114216 
L 607.314802 -127.762935 
L 612.42199 -123.411654 
L 617.529177 -119.060372 
L 622.636364 -114.709091 
L 622.636364 -178.11406 
L 622.636364 -178.11406 
L 617.529177 -182.465342 
L 612.42199 -186.816623 
L 607.314802 -191.167904 
L 602.207615 -195.519186 
L 597.100428 -199.870467 
L 591.993241 -204.221748 
L 586.886054 -208.573029 
L 581.778867 -212.924311 
L 576.67168 -217.275592 
L 571.564493 -221.626873 
L 566.457306 -225.978155 
L 561.350119 -230.329436 
L 556.242932 -234.680717 
L 551.135745 -239.031999 
L 546.028558 -243.38328 
L 540.921371 -247.734561 
L 535.814184 -252.085842 
L 530.706997 -256.437124 
L 525.59981 -260.788405 
L 520.492623 -265.139686 
L 515.385435 -269.490968 
L 510.278248 -273.842249 
L 505.171061 -278.19353 
L 500.063874 -282.544812 
L 494.956687 -286.896093 
L 489.8495 -291.247374 
L 484.742313 -295.598655 
L 479.635126 -299.949937 
L 474.527939 -304.301218 
L 469.420752 -308.652499 
L 464.313565 -313.003781 
L 459.206378 -317.355062 
L 454.099191 -321.706343 
L 448.992004 -326.057625 
L 443.884817 -330.408906 
L 438.77763 -334.760187 
L 433.670443 -339.111468 
L 428.563255 -343.46275 
L 423.456068 -347.814031 
L 418.348881 -352.165312 
L 413.241694 -356.516594 
L 408.134507 -360.867875 
L 403.02732 -365.219156 
L 397.920133 -369.570438 
L 392.812946 -373.921719 
L 387.705759 -378.273 
L 382.598572 -382.624281 
L 377.491385 -386.975563 
L 372.384198 -391.326844 
L 367.277011 -395.678125 
L 362.169824 -400.029407 
L 357.062637 -404.380688 
L 351.95545 -408.731969 
L 346.848263 -413.083251 
L 341.741076 -417.434532 
L 336.633888 -421.785813 
L 331.526701 -426.137094 
L 326.419514 -430.488376 
L 321.312327 -434.839657 
L 316.20514 -439.190938 
L 311.097953 -443.54222 
L 305.990766 -447.893501 
L 300.883579 -452.244782 
L 295.776392 -456.596064 
L 290.669205 -460.947345 
L 285.562018 -465.298626 
L 280.454831 -469.649907 
L 275.347644 -474.001189 
L 270.240457 -478.35247 
L 265.13327 -482.703751 
L 260.026083 -487.055033 
L 254.918896 -491.406314 
L 249.811709 -495.757595 
L 244.704521 -500.108877 
L 239.597334 -504.460158 
L 234.490147 -508.811439 
L 229.38296 -513.16272 
L 224.275773 -517.514002 
L 219.168586 -521.865283 
L 214.061399 -526.216564 
L 208.954212 -530.567846 
L 203.847025 -534.919127 
L 198.739838 -539.270408 
L 193.632651 -543.62169 
L 188.525464 -547.972971 
L 183.418277 -552.324252 
L 178.31109 -556.675533 
L 173.203903 -561.026815 
L 168.096716 -565.378096 
L 162.989529 -569.729377 
L 157.882342 -574.080659 
L 152.775154 -578.43194 
L 147.667967 -582.783221 
L 142.56078 -587.134503 
L 137.453593 -591.485784 
L 132.346406 -595.837065 
L 127.239219 -600.188346 
L 122.132032 -604.539628 
L 117.024845 -608.890909 
z
" id="m3f5a1972c1" style="stroke:#3778bf;stroke-opacity:0.4;"/>
    </defs>
    <g clip-path="url(#pf07c661c11)">
     <use style="fill:#3778bf;fill-opacity:0.4;stroke:#3778bf;stroke-opacity:0.4;" x="0" xlink:href="#m3f5a1972c1" y="720"/>
    </g>
   </g>
   <g id="matplotlib.axis_1">
    <g id="xtick_1">
     <g id="line2d_1"/>
    </g>
    <g id="xtick_2">
     <g id="line2d_2"/>
    </g>
    <g id="xtick_3">
     <g id="line2d_3"/>
    </g>
    <g id="xtick_4">
     <g id="line2d_4"/>
    </g>
    <g id="xtick_5">
     <g id="line2d_5"/>
    </g>
    <g id="xtick_6">
     <g id="line2d_6"/>
    </g>
    <g id="xtick_7">
     <g id="line2d_7"/>
    </g>
    <g id="xtick_8">
     <g id="line2d_8"/>
    </g>
    <g id="xtick_9">
     <g id="line2d_9"/>
    </g>
    <g id="xtick_10">
     <g id="line2d_10"/>
    </g>
    <g id="xtick_11">
     <g id="line2d_11"/>
    </g>
    <g id="xtick_12">
     <g id="line2d_12"/>
    </g>
    <g id="xtick_13">
     <g id="line2d_13"/>
    </g>
    <g id="xtick_14">
     <g id="line2d_14"/>
    </g>
    <g id="xtick_15">
     <g id="line2d_15"/>
    </g>
    <g id="xtick_16">
     <g id="line2d_16"/>
    </g>
    <g id="xtick_17">
     <g id="line2d_17"/>
    </g>
    <g id="xtick_18">
     <g id="line2d_18"/>
    </g>
    <g id="xtick_19">
     <g id="line2d_19"/>
    </g>
    <g id="xtick_20">
     <g id="line2d_20"/>
    </g>
    <g id="xtick_21">
     <g id="line2d_21"/>
    </g>
    <g id="xtick_22">
     <g id="line2d_22"/>
    </g>
    <g id="xtick_23">
     <g id="line2d_23"/>
    </g>
    <g id="xtick_24">
     <g id="line2d_24"/>
    </g>
    <g id="xtick_25">
     <g id="line2d_25"/>
    </g>
    <g id="xtick_26">
     <g id="line2d_26"/>
    </g>
    <g id="xtick_27">
     <g id="line2d_27"/>
    </g>
    <g id="text_1">
     <!-- Parameter 1 (e.g. $k_{cat,C}$) -->
     <defs>
      <path d="M 19.671875 64.796875 
L 19.671875 37.40625 
L 32.078125 37.40625 
Q 38.96875 37.40625 42.71875 40.96875 
Q 46.484375 44.53125 46.484375 51.125 
Q 46.484375 57.671875 42.71875 61.234375 
Q 38.96875 64.796875 32.078125 64.796875 
z
M 9.8125 72.90625 
L 32.078125 72.90625 
Q 44.34375 72.90625 50.609375 67.359375 
Q 56.890625 61.8125 56.890625 51.125 
Q 56.890625 40.328125 50.609375 34.8125 
Q 44.34375 29.296875 32.078125 29.296875 
L 19.671875 29.296875 
L 19.671875 0 
L 9.8125 0 
z
" id="DejaVuSans-50"/>
      <path d="M 34.28125 27.484375 
Q 23.390625 27.484375 19.1875 25 
Q 14.984375 22.515625 14.984375 16.5 
Q 14.984375 11.71875 18.140625 8.90625 
Q 21.296875 6.109375 26.703125 6.109375 
Q 34.1875 6.109375 38.703125 11.40625 
Q 43.21875 16.703125 43.21875 25.484375 
L 43.21875 27.484375 
z
M 52.203125 31.203125 
L 52.203125 0 
L 43.21875 0 
L 43.21875 8.296875 
Q 40.140625 3.328125 35.546875 0.953125 
Q 30.953125 -1.421875 24.3125 -1.421875 
Q 15.921875 -1.421875 10.953125 3.296875 
Q 6 8.015625 6 15.921875 
Q 6 25.140625 12.171875 29.828125 
Q 18.359375 34.515625 30.609375 34.515625 
L 43.21875 34.515625 
L 43.21875 35.40625 
Q 43.21875 41.609375 39.140625 45 
Q 35.0625 48.390625 27.6875 48.390625 
Q 23 48.390625 18.546875 47.265625 
Q 14.109375 46.140625 10.015625 43.890625 
L 10.015625 52.203125 
Q 14.9375 54.109375 19.578125 55.046875 
Q 24.21875 56 28.609375 56 
Q 40.484375 56 46.34375 49.84375 
Q 52.203125 43.703125 52.203125 31.203125 
z
" id="DejaVuSans-61"/>
      <path d="M 41.109375 46.296875 
Q 39.59375 47.171875 37.8125 47.578125 
Q 36.03125 48 33.890625 48 
Q 26.265625 48 22.1875 43.046875 
Q 18.109375 38.09375 18.109375 28.8125 
L 18.109375 0 
L 9.078125 0 
L 9.078125 54.6875 
L 18.109375 54.6875 
L 18.109375 46.1875 
Q 20.953125 51.171875 25.484375 53.578125 
Q 30.03125 56 36.53125 56 
Q 37.453125 56 38.578125 55.875 
Q 39.703125 55.765625 41.0625 55.515625 
z
" id="DejaVuSans-72"/>
      <path d="M 52 44.1875 
Q 55.375 50.25 60.0625 53.125 
Q 64.75 56 71.09375 56 
Q 79.640625 56 84.28125 50.015625 
Q 88.921875 44.046875 88.921875 33.015625 
L 88.921875 0 
L 79.890625 0 
L 79.890625 32.71875 
Q 79.890625 40.578125 77.09375 44.375 
Q 74.3125 48.1875 68.609375 48.1875 
Q 61.625 48.1875 57.5625 43.546875 
Q 53.515625 38.921875 53.515625 30.90625 
L 53.515625 0 
L 44.484375 0 
L 44.484375 32.71875 
Q 44.484375 40.625 41.703125 44.40625 
Q 38.921875 48.1875 33.109375 48.1875 
Q 26.21875 48.1875 22.15625 43.53125 
Q 18.109375 38.875 18.109375 30.90625 
L 18.109375 0 
L 9.078125 0 
L 9.078125 54.6875 
L 18.109375 54.6875 
L 18.109375 46.1875 
Q 21.1875 51.21875 25.484375 53.609375 
Q 29.78125 56 35.6875 56 
Q 41.65625 56 45.828125 52.96875 
Q 50 49.953125 52 44.1875 
z
" id="DejaVuSans-6d"/>
      <path d="M 56.203125 29.59375 
L 56.203125 25.203125 
L 14.890625 25.203125 
Q 15.484375 15.921875 20.484375 11.0625 
Q 25.484375 6.203125 34.421875 6.203125 
Q 39.59375 6.203125 44.453125 7.46875 
Q 49.3125 8.734375 54.109375 11.28125 
L 54.109375 2.78125 
Q 49.265625 0.734375 44.1875 -0.34375 
Q 39.109375 -1.421875 33.890625 -1.421875 
Q 20.796875 -1.421875 13.15625 6.1875 
Q 5.515625 13.8125 5.515625 26.8125 
Q 5.515625 40.234375 12.765625 48.109375 
Q 20.015625 56 32.328125 56 
Q 43.359375 56 49.78125 48.890625 
Q 56.203125 41.796875 56.203125 29.59375 
z
M 47.21875 32.234375 
Q 47.125 39.59375 43.09375 43.984375 
Q 39.0625 48.390625 32.421875 48.390625 
Q 24.90625 48.390625 20.390625 44.140625 
Q 15.875 39.890625 15.1875 32.171875 
z
" id="DejaVuSans-65"/>
      <path d="M 18.3125 70.21875 
L 18.3125 54.6875 
L 36.8125 54.6875 
L 36.8125 47.703125 
L 18.3125 47.703125 
L 18.3125 18.015625 
Q 18.3125 11.328125 20.140625 9.421875 
Q 21.96875 7.515625 27.59375 7.515625 
L 36.8125 7.515625 
L 36.8125 0 
L 27.59375 0 
Q 17.1875 0 13.234375 3.875 
Q 9.28125 7.765625 9.28125 18.015625 
L 9.28125 47.703125 
L 2.6875 47.703125 
L 2.6875 54.6875 
L 9.28125 54.6875 
L 9.28125 70.21875 
z
" id="DejaVuSans-74"/>
      <path id="DejaVuSans-20"/>
      <path d="M 12.40625 8.296875 
L 28.515625 8.296875 
L 28.515625 63.921875 
L 10.984375 60.40625 
L 10.984375 69.390625 
L 28.421875 72.90625 
L 38.28125 72.90625 
L 38.28125 8.296875 
L 54.390625 8.296875 
L 54.390625 0 
L 12.40625 0 
z
" id="DejaVuSans-31"/>
      <path d="M 31 75.875 
Q 24.46875 64.65625 21.28125 53.65625 
Q 18.109375 42.671875 18.109375 31.390625 
Q 18.109375 20.125 21.3125 9.0625 
Q 24.515625 -2 31 -13.1875 
L 23.1875 -13.1875 
Q 15.875 -1.703125 12.234375 9.375 
Q 8.59375 20.453125 8.59375 31.390625 
Q 8.59375 42.28125 12.203125 53.3125 
Q 15.828125 64.359375 23.1875 75.875 
z
" id="DejaVuSans-28"/>
      <path d="M 10.6875 12.40625 
L 21 12.40625 
L 21 0 
L 10.6875 0 
z
" id="DejaVuSans-2e"/>
      <path d="M 45.40625 27.984375 
Q 45.40625 37.75 41.375 43.109375 
Q 37.359375 48.484375 30.078125 48.484375 
Q 22.859375 48.484375 18.828125 43.109375 
Q 14.796875 37.75 14.796875 27.984375 
Q 14.796875 18.265625 18.828125 12.890625 
Q 22.859375 7.515625 30.078125 7.515625 
Q 37.359375 7.515625 41.375 12.890625 
Q 45.40625 18.265625 45.40625 27.984375 
z
M 54.390625 6.78125 
Q 54.390625 -7.171875 48.1875 -13.984375 
Q 42 -20.796875 29.203125 -20.796875 
Q 24.46875 -20.796875 20.265625 -20.09375 
Q 16.0625 -19.390625 12.109375 -17.921875 
L 12.109375 -9.1875 
Q 16.0625 -11.328125 19.921875 -12.34375 
Q 23.78125 -13.375 27.78125 -13.375 
Q 36.625 -13.375 41.015625 -8.765625 
Q 45.40625 -4.15625 45.40625 5.171875 
L 45.40625 9.625 
Q 42.625 4.78125 38.28125 2.390625 
Q 33.9375 0 27.875 0 
Q 17.828125 0 11.671875 7.65625 
Q 5.515625 15.328125 5.515625 27.984375 
Q 5.515625 40.671875 11.671875 48.328125 
Q 17.828125 56 27.875 56 
Q 33.9375 56 38.28125 53.609375 
Q 42.625 51.21875 45.40625 46.390625 
L 45.40625 54.6875 
L 54.390625 54.6875 
z
" id="DejaVuSans-67"/>
      <path d="M 18.3125 75.984375 
L 27.296875 75.984375 
L 18.703125 31.6875 
L 49.515625 54.6875 
L 61.1875 54.6875 
L 26.8125 28.515625 
L 51.90625 0 
L 41.015625 0 
L 17.671875 26.703125 
L 12.5 0 
L 3.515625 0 
z
" id="DejaVuSans-Oblique-6b"/>
      <path d="M 53.609375 52.59375 
L 51.8125 43.703125 
Q 48.578125 46.046875 44.9375 47.21875 
Q 41.3125 48.390625 37.40625 48.390625 
Q 33.109375 48.390625 29.21875 46.875 
Q 25.34375 45.359375 22.703125 42.578125 
Q 18.5 38.328125 16.203125 32.609375 
Q 13.921875 26.90625 13.921875 20.796875 
Q 13.921875 13.421875 17.609375 9.8125 
Q 21.296875 6.203125 28.8125 6.203125 
Q 32.515625 6.203125 36.6875 7.328125 
Q 40.875 8.453125 45.40625 10.6875 
L 43.703125 1.8125 
Q 39.796875 0.203125 35.671875 -0.609375 
Q 31.546875 -1.421875 27.203125 -1.421875 
Q 16.3125 -1.421875 10.453125 4.015625 
Q 4.59375 9.46875 4.59375 19.578125 
Q 4.59375 28.078125 7.640625 35.234375 
Q 10.6875 42.390625 16.703125 48.09375 
Q 20.796875 52 26.3125 54 
Q 31.84375 56 38.375 56 
Q 42.1875 56 45.9375 55.140625 
Q 49.703125 54.296875 53.609375 52.59375 
z
" id="DejaVuSans-Oblique-63"/>
      <path d="M 53.71875 31.203125 
L 47.609375 0 
L 38.625 0 
L 40.28125 8.296875 
Q 36.328125 3.421875 31.265625 1 
Q 26.21875 -1.421875 20.015625 -1.421875 
Q 13.03125 -1.421875 8.5625 2.84375 
Q 4.109375 7.125 4.109375 13.8125 
Q 4.109375 23.390625 11.75 28.953125 
Q 19.390625 34.515625 32.8125 34.515625 
L 45.3125 34.515625 
L 45.796875 36.921875 
Q 45.90625 37.3125 45.953125 37.765625 
Q 46 38.234375 46 39.203125 
Q 46 43.5625 42.453125 45.96875 
Q 38.921875 48.390625 32.515625 48.390625 
Q 28.125 48.390625 23.5 47.265625 
Q 18.890625 46.140625 14.015625 43.890625 
L 15.578125 52.203125 
Q 20.65625 54.109375 25.515625 55.046875 
Q 30.375 56 34.90625 56 
Q 44.578125 56 49.625 51.796875 
Q 54.6875 47.609375 54.6875 39.59375 
Q 54.6875 37.984375 54.4375 35.8125 
Q 54.203125 33.640625 53.71875 31.203125 
z
M 44 27.484375 
L 35.015625 27.484375 
Q 23.96875 27.484375 18.671875 24.53125 
Q 13.375 21.578125 13.375 15.375 
Q 13.375 11.078125 16.078125 8.640625 
Q 18.796875 6.203125 23.578125 6.203125 
Q 30.90625 6.203125 36.375 11.453125 
Q 41.84375 16.703125 43.609375 25.484375 
z
" id="DejaVuSans-Oblique-61"/>
      <path d="M 42.28125 54.6875 
L 40.921875 47.703125 
L 23 47.703125 
L 17.1875 18.015625 
Q 16.890625 16.359375 16.75 15.234375 
Q 16.609375 14.109375 16.609375 13.484375 
Q 16.609375 10.359375 18.484375 8.9375 
Q 20.359375 7.515625 24.515625 7.515625 
L 33.59375 7.515625 
L 32.078125 0 
L 23.484375 0 
Q 15.484375 0 11.546875 3.125 
Q 7.625 6.25 7.625 12.59375 
Q 7.625 13.71875 7.765625 15.0625 
Q 7.90625 16.40625 8.203125 18.015625 
L 14.015625 47.703125 
L 6.390625 47.703125 
L 7.8125 54.6875 
L 15.28125 54.6875 
L 18.3125 70.21875 
L 27.296875 70.21875 
L 24.3125 54.6875 
z
" id="DejaVuSans-Oblique-74"/>
      <path d="M 11.71875 12.40625 
L 22.015625 12.40625 
L 22.015625 4 
L 14.015625 -11.625 
L 7.71875 -11.625 
L 11.71875 4 
z
" id="DejaVuSans-2c"/>
      <path d="M 69.484375 67.28125 
L 67.484375 56.890625 
Q 62.796875 61.625 57.546875 63.921875 
Q 52.296875 66.21875 46.1875 66.21875 
Q 37.84375 66.21875 31.515625 62.203125 
Q 25.203125 58.203125 20.609375 50 
Q 17.671875 44.734375 16.125 38.84375 
Q 14.59375 32.953125 14.59375 27 
Q 14.59375 17.046875 19.75 11.8125 
Q 24.90625 6.59375 34.71875 6.59375 
Q 41.5 6.59375 47.75 8.765625 
Q 54 10.9375 59.90625 15.28125 
L 57.625 3.609375 
Q 51.8125 1.125 45.875 -0.140625 
Q 39.9375 -1.421875 33.984375 -1.421875 
Q 19.96875 -1.421875 12.078125 6.1875 
Q 4.203125 13.8125 4.203125 27.390625 
Q 4.203125 36.078125 7.203125 44.46875 
Q 10.203125 52.875 15.828125 59.8125 
Q 21.78125 67.1875 29.421875 70.703125 
Q 37.0625 74.21875 47.21875 74.21875 
Q 53.46875 74.21875 59.0625 72.484375 
Q 64.65625 70.75 69.484375 67.28125 
z
" id="DejaVuSans-Oblique-43"/>
      <path d="M 8.015625 75.875 
L 15.828125 75.875 
Q 23.140625 64.359375 26.78125 53.3125 
Q 30.421875 42.28125 30.421875 31.390625 
Q 30.421875 20.453125 26.78125 9.375 
Q 23.140625 -1.703125 15.828125 -13.1875 
L 8.015625 -13.1875 
Q 14.5 -2 17.703125 9.0625 
Q 20.90625 20.125 20.90625 31.390625 
Q 20.90625 42.671875 17.703125 53.65625 
Q 14.5 64.65625 8.015625 75.875 
z
" id="DejaVuSans-29"/>
     </defs>
     <g transform="translate(224.4 655.64)scale(0.24 -0.24)">
      <use transform="translate(0 0.015625)" xlink:href="#DejaVuSans-50"/>
      <use transform="translate(60.302734 0.015625)" xlink:href="#DejaVuSans-61"/>
      <use transform="translate(121.582031 0.015625)" xlink:href="#DejaVuSans-72"/>
      <use transform="translate(162.695312 0.015625)" xlink:href="#DejaVuSans-61"/>
      <use transform="translate(223.974609 0.015625)" xlink:href="#DejaVuSans-6d"/>
      <use transform="translate(321.386719 0.015625)" xlink:href="#DejaVuSans-65"/>
      <use transform="translate(382.910156 0.015625)" xlink:href="#DejaVuSans-74"/>
      <use transform="translate(422.119141 0.015625)" xlink:href="#DejaVuSans-65"/>
      <use transform="translate(483.642578 0.015625)" xlink:href="#DejaVuSans-72"/>
      <use transform="translate(524.755859 0.015625)" xlink:href="#DejaVuSans-20"/>
      <use transform="translate(556.542969 0.015625)" xlink:href="#DejaVuSans-31"/>
      <use transform="translate(620.166016 0.015625)" xlink:href="#DejaVuSans-20"/>
      <use transform="translate(651.953125 0.015625)" xlink:href="#DejaVuSans-28"/>
      <use transform="translate(690.966797 0.015625)" xlink:href="#DejaVuSans-65"/>
      <use transform="translate(752.490234 0.015625)" xlink:href="#DejaVuSans-2e"/>
      <use transform="translate(784.277344 0.015625)" xlink:href="#DejaVuSans-67"/>
      <use transform="translate(847.753906 0.015625)" xlink:href="#DejaVuSans-2e"/>
      <use transform="translate(879.541016 0.015625)" xlink:href="#DejaVuSans-20"/>
      <use transform="translate(911.328125 0.015625)" xlink:href="#DejaVuSans-Oblique-6b"/>
      <use transform="translate(969.238281 -16.390625)scale(0.7)" xlink:href="#DejaVuSans-Oblique-63"/>
      <use transform="translate(1007.724609 -16.390625)scale(0.7)" xlink:href="#DejaVuSans-Oblique-61"/>
      <use transform="translate(1050.620117 -16.390625)scale(0.7)" xlink:href="#DejaVuSans-Oblique-74"/>
      <use transform="translate(1078.066406 -16.390625)scale(0.7)" xlink:href="#DejaVuSans-2c"/>
      <use transform="translate(1113.955078 -16.390625)scale(0.7)" xlink:href="#DejaVuSans-Oblique-43"/>
      <use transform="translate(1165.566406 0.015625)" xlink:href="#DejaVuSans-29"/>
     </g>
    </g>
   </g>
   <g id="matplotlib.axis_2">
    <g id="ytick_1">
     <g id="line2d_28"/>
    </g>
    <g id="ytick_2">
     <g id="line2d_29"/>
    </g>
    <g id="ytick_3">
     <g id="line2d_30"/>
    </g>
    <g id="ytick_4">
     <g id="line2d_31"/>
    </g>
    <g id="ytick_5">
     <g id="line2d_32"/>
    </g>
    <g id="ytick_6">
     <g id="line2d_33"/>
    </g>
    <g id="ytick_7">
     <g id="line2d_34"/>
    </g>
    <g id="ytick_8">
     <g id="line2d_35"/>
    </g>
    <g id="ytick_9">
     <g id="line2d_36"/>
    </g>
    <g id="ytick_10">
     <g id="line2d_37"/>
    </g>
    <g id="ytick_11">
     <g id="line2d_38"/>
    </g>
    <g id="ytick_12">
     <g id="line2d_39"/>
    </g>
    <g id="ytick_13">
     <g id="line2d_40"/>
    </g>
    <g id="ytick_14">
     <g id="line2d_41"/>
    </g>
    <g id="ytick_15">
     <g id="line2d_42"/>
    </g>
    <g id="ytick_16">
     <g id="line2d_43"/>
    </g>
    <g id="ytick_17">
     <g id="line2d_44"/>
    </g>
    <g id="ytick_18">
     <g id="line2d_45"/>
    </g>
    <g id="ytick_19">
     <g id="line2d_46"/>
    </g>
    <g id="ytick_20">
     <g id="line2d_47"/>
    </g>
    <g id="ytick_21">
     <g id="line2d_48"/>
    </g>
    <g id="ytick_22">
     <g id="line2d_49"/>
    </g>
    <g id="ytick_23">
     <g id="line2d_50"/>
    </g>
    <g id="ytick_24">
     <g id="line2d_51"/>
    </g>
    <g id="ytick_25">
     <g id="line2d_52"/>
    </g>
    <g id="ytick_26">
     <g id="line2d_53"/>
    </g>
    <g id="ytick_27">
     <g id="line2d_54"/>
    </g>
    <g id="ytick_28">
     <g id="line2d_55"/>
    </g>
    <g id="ytick_29">
     <g id="line2d_56"/>
    </g>
    <g id="ytick_30">
     <g id="line2d_57"/>
    </g>
    <g id="ytick_31">
     <g id="line2d_58"/>
    </g>
    <g id="ytick_32">
     <g id="line2d_59"/>
    </g>
    <g id="ytick_33">
     <g id="line2d_60"/>
    </g>
    <g id="ytick_34">
     <g id="line2d_61"/>
    </g>
    <g id="ytick_35">
     <g id="line2d_62"/>
    </g>
    <g id="ytick_36">
     <g id="line2d_63"/>
    </g>
    <g id="ytick_37">
     <g id="line2d_64"/>
    </g>
    <g id="ytick_38">
     <g id="line2d_65"/>
    </g>
    <g id="ytick_39">
     <g id="line2d_66"/>
    </g>
    <g id="ytick_40">
     <g id="line2d_67"/>
    </g>
    <g id="text_2">
     <!-- Parameter 2 (e.g. $K_C$) -->
     <defs>
      <path d="M 19.1875 8.296875 
L 53.609375 8.296875 
L 53.609375 0 
L 7.328125 0 
L 7.328125 8.296875 
Q 12.9375 14.109375 22.625 23.890625 
Q 32.328125 33.6875 34.8125 36.53125 
Q 39.546875 41.84375 41.421875 45.53125 
Q 43.3125 49.21875 43.3125 52.78125 
Q 43.3125 58.59375 39.234375 62.25 
Q 35.15625 65.921875 28.609375 65.921875 
Q 23.96875 65.921875 18.8125 64.3125 
Q 13.671875 62.703125 7.8125 59.421875 
L 7.8125 69.390625 
Q 13.765625 71.78125 18.9375 73 
Q 24.125 74.21875 28.421875 74.21875 
Q 39.75 74.21875 46.484375 68.546875 
Q 53.21875 62.890625 53.21875 53.421875 
Q 53.21875 48.921875 51.53125 44.890625 
Q 49.859375 40.875 45.40625 35.40625 
Q 44.1875 33.984375 37.640625 27.21875 
Q 31.109375 20.453125 19.1875 8.296875 
z
" id="DejaVuSans-32"/>
      <path d="M 16.890625 72.90625 
L 26.8125 72.90625 
L 20.796875 42.1875 
L 59.078125 72.90625 
L 72.21875 72.90625 
L 28.90625 38.09375 
L 60.59375 0 
L 48.578125 0 
L 19.484375 35.5 
L 12.59375 0 
L 2.6875 0 
z
" id="DejaVuSans-Oblique-4b"/>
     </defs>
     <g transform="translate(77.56 486.36)rotate(-90)scale(0.24 -0.24)">
      <use transform="translate(0 0.125)" xlink:href="#DejaVuSans-50"/>
      <use transform="translate(60.302734 0.125)" xlink:href="#DejaVuSans-61"/>
      <use transform="translate(121.582031 0.125)" xlink:href="#DejaVuSans-72"/>
      <use transform="translate(162.695312 0.125)" xlink:href="#DejaVuSans-61"/>
      <use transform="translate(223.974609 0.125)" xlink:href="#DejaVuSans-6d"/>
      <use transform="translate(321.386719 0.125)" xlink:href="#DejaVuSans-65"/>
      <use transform="translate(382.910156 0.125)" xlink:href="#DejaVuSans-74"/>
      <use transform="translate(422.119141 0.125)" xlink:href="#DejaVuSans-65"/>
      <use transform="translate(483.642578 0.125)" xlink:href="#DejaVuSans-72"/>
      <use transform="translate(524.755859 0.125)" xlink:href="#DejaVuSans-20"/>
      <use transform="translate(556.542969 0.125)" xlink:href="#DejaVuSans-32"/>
      <use transform="translate(620.166016 0.125)" xlink:href="#DejaVuSans-20"/>
      <use transform="translate(651.953125 0.125)" xlink:href="#DejaVuSans-28"/>
      <use transform="translate(690.966797 0.125)" xlink:href="#DejaVuSans-65"/>
      <use transform="translate(752.490234 0.125)" xlink:href="#DejaVuSans-2e"/>
      <use transform="translate(784.277344 0.125)" xlink:href="#DejaVuSans-67"/>
      <use transform="translate(847.753906 0.125)" xlink:href="#DejaVuSans-2e"/>
      <use transform="translate(879.541016 0.125)" xlink:href="#DejaVuSans-20"/>
      <use transform="translate(911.328125 0.125)" xlink:href="#DejaVuSans-Oblique-4b"/>
      <use transform="translate(976.904297 -16.28125)scale(0.7)" xlink:href="#DejaVuSans-Oblique-43"/>
      <use transform="translate(1028.515625 0.125)" xlink:href="#DejaVuSans-29"/>
     </g>
    </g>
   </g>
   <g id="line2d_68">
    <path clip-path="url(#pf07c661c11)" d="M 117.024845 111.109091 
L 122.132032 115.460372 
L 127.239219 119.811654 
L 132.346406 124.162935 
L 137.453593 128.514216 
L 142.56078 132.865497 
L 147.667967 137.216779 
L 152.775154 141.56806 
L 157.882342 145.919341 
L 162.989529 150.270623 
L 168.096716 154.621904 
L 173.203903 158.973185 
L 178.31109 163.324467 
L 183.418277 167.675748 
L 188.525464 172.027029 
L 193.632651 176.37831 
L 198.739838 180.729592 
L 203.847025 185.080873 
L 208.954212 189.432154 
L 214.061399 193.783436 
L 219.168586 198.134717 
L 224.275773 202.485998 
L 229.38296 206.83728 
L 234.490147 211.188561 
L 239.597334 215.539842 
L 244.704521 219.891123 
L 249.811709 224.242405 
L 254.918896 228.593686 
L 260.026083 232.944967 
L 265.13327 237.296249 
L 270.240457 241.64753 
L 275.347644 245.998811 
L 280.454831 250.350093 
L 285.562018 254.701374 
L 290.669205 259.052655 
L 295.776392 263.403936 
L 300.883579 267.755218 
L 305.990766 272.106499 
L 311.097953 276.45778 
L 316.20514 280.809062 
L 321.312327 285.160343 
L 326.419514 289.511624 
L 331.526701 293.862906 
L 336.633888 298.214187 
L 341.741076 302.565468 
L 346.848263 306.916749 
L 351.95545 311.268031 
L 357.062637 315.619312 
L 362.169824 319.970593 
L 367.277011 324.321875 
L 372.384198 328.673156 
L 377.491385 333.024437 
L 382.598572 337.375719 
L 387.705759 341.727 
L 392.812946 346.078281 
L 397.920133 350.429562 
L 403.02732 354.780844 
L 408.134507 359.132125 
L 413.241694 363.483406 
L 418.348881 367.834688 
L 423.456068 372.185969 
L 428.563255 376.53725 
L 433.670443 380.888532 
L 438.77763 385.239813 
L 443.884817 389.591094 
L 448.992004 393.942375 
L 454.099191 398.293657 
L 459.206378 402.644938 
L 464.313565 406.996219 
L 469.420752 411.347501 
L 474.527939 415.698782 
L 479.635126 420.050063 
L 484.742313 424.401345 
L 489.8495 428.752626 
L 494.956687 433.103907 
L 500.063874 437.455188 
L 505.171061 441.80647 
L 510.278248 446.157751 
L 515.385435 450.509032 
L 520.492623 454.860314 
L 525.59981 459.211595 
L 530.706997 463.562876 
L 535.814184 467.914158 
L 540.921371 472.265439 
L 546.028558 476.61672 
L 551.135745 480.968001 
L 556.242932 485.319283 
L 561.350119 489.670564 
L 566.457306 494.021845 
L 571.564493 498.373127 
L 576.67168 502.724408 
L 581.778867 507.075689 
L 586.886054 511.426971 
L 591.993241 515.778252 
L 597.100428 520.129533 
L 602.207615 524.480814 
L 607.314802 528.832096 
L 612.42199 533.183377 
L 617.529177 537.534658 
L 622.636364 541.88594 
" style="fill:none;stroke:#3778bf;stroke-dasharray:11.1,4.8;stroke-dashoffset:0;stroke-width:3;"/>
   </g>
   <g id="patch_3">
    <path d="M 90 630 
L 90 86.4 
" style="fill:none;stroke:#000000;stroke-linecap:square;stroke-linejoin:miter;stroke-width:0.8;"/>
   </g>
   <g id="patch_4">
    <path d="M 90 630 
L 648 630 
" style="fill:none;stroke:#000000;stroke-linecap:square;stroke-linejoin:miter;stroke-width:0.8;"/>
   </g>
  </g>
 </g>
 <defs>
  <clipPath id="pf07c661c11">
   <rect height="543.6" width="558" x="90" y="86.4"/>
  </clipPath>
 </defs>
</svg>
