<?xml version="1.0" encoding="utf-8" standalone="no"?>
<!DOCTYPE svg PUBLIC "-//W3C//DTD SVG 1.1//EN"
  "http://www.w3.org/Graphics/SVG/1.1/DTD/svg11.dtd">
<!-- Created with matplotlib (http://matplotlib.org/) -->
<svg height="720pt" version="1.1" viewBox="0 0 720 720" width="720pt" xmlns="http://www.w3.org/2000/svg" xmlns:xlink="http://www.w3.org/1999/xlink">
 <defs>
  <style type="text/css">
*{stroke-linecap:butt;stroke-linejoin:round;}
  </style>
 </defs>
 <g id="figure_1">
  <g id="patch_1">
   <path d="M 0 720 
L 720 720 
L 720 0 
L 0 0 
z
" style="fill:#ffffff;"/>
  </g>
  <g id="axes_1">
   <g id="patch_2">
    <path d="M 90 630 
L 648 630 
L 648 86.4 
L 90 86.4 
z
" style="fill:#ffffff;"/>
   </g>
   <g id="matplotlib.axis_1">
    <g id="xtick_1">
     <g id="line2d_1">
      <path clip-path="url(#p5e51cabfa2)" d="M 90 630 
L 90 86.4 
" style="fill:none;stroke:#cccccc;stroke-linecap:round;stroke-width:0.8;"/>
     </g>
     <g id="line2d_2"/>
     <g id="text_1">
      <!-- $\mathdefault{10^{-4}}$ -->
      <defs>
       <path d="M 37.25 0 
L 28.46875 0 
L 28.46875 56 
Q 25.296875 52.984375 20.140625 49.953125 
Q 14.984375 46.921875 10.890625 45.40625 
L 10.890625 53.90625 
Q 18.265625 57.375 23.78125 62.296875 
Q 29.296875 67.234375 31.59375 71.875 
L 37.25 71.875 
z
" id="ArialMT-31"/>
       <path d="M 4.15625 35.296875 
Q 4.15625 48 6.765625 55.734375 
Q 9.375 63.484375 14.515625 67.671875 
Q 19.671875 71.875 27.484375 71.875 
Q 33.25 71.875 37.59375 69.546875 
Q 41.9375 67.234375 44.765625 62.859375 
Q 47.609375 58.5 49.21875 52.21875 
Q 50.828125 45.953125 50.828125 35.296875 
Q 50.828125 22.703125 48.234375 14.96875 
Q 45.65625 7.234375 40.5 3 
Q 35.359375 -1.21875 27.484375 -1.21875 
Q 17.140625 -1.21875 11.234375 6.203125 
Q 4.15625 15.140625 4.15625 35.296875 
z
M 13.1875 35.296875 
Q 13.1875 17.671875 17.3125 11.828125 
Q 21.4375 6 27.484375 6 
Q 33.546875 6 37.671875 11.859375 
Q 41.796875 17.71875 41.796875 35.296875 
Q 41.796875 52.984375 37.671875 58.78125 
Q 33.546875 64.59375 27.390625 64.59375 
Q 21.34375 64.59375 17.71875 59.46875 
Q 13.1875 52.9375 13.1875 35.296875 
z
" id="ArialMT-30"/>
       <path d="M 52.828125 31.203125 
L 5.5625 31.203125 
L 5.5625 39.40625 
L 52.828125 39.40625 
z
" id="ArialMT-2212"/>
       <path d="M 32.328125 0 
L 32.328125 17.140625 
L 1.265625 17.140625 
L 1.265625 25.203125 
L 33.9375 71.578125 
L 41.109375 71.578125 
L 41.109375 25.203125 
L 50.78125 25.203125 
L 50.78125 17.140625 
L 41.109375 17.140625 
L 41.109375 0 
z
M 32.328125 25.203125 
L 32.328125 57.46875 
L 9.90625 25.203125 
z
" id="ArialMT-34"/>
      </defs>
      <g style="fill:#262626;" transform="translate(74.16 649.84)scale(0.16 -0.16)">
       <use transform="translate(0 0.201563)" xlink:href="#ArialMT-31"/>
       <use transform="translate(55.615234 0.201563)" xlink:href="#ArialMT-30"/>
       <use transform="translate(112.972813 69.895313)scale(0.7)" xlink:href="#ArialMT-2212"/>
       <use transform="translate(153.851719 69.895313)scale(0.7)" xlink:href="#ArialMT-34"/>
      </g>
     </g>
    </g>
    <g id="xtick_2">
     <g id="line2d_3">
      <path clip-path="url(#p5e51cabfa2)" d="M 369 630 
L 369 86.4 
" style="fill:none;stroke:#cccccc;stroke-linecap:round;stroke-width:0.8;"/>
     </g>
     <g id="line2d_4"/>
     <g id="text_2">
      <!-- $\mathdefault{10^{-3}}$ -->
      <defs>
       <path d="M 4.203125 18.890625 
L 12.984375 20.0625 
Q 14.5 12.59375 18.140625 9.296875 
Q 21.78125 6 27 6 
Q 33.203125 6 37.46875 10.296875 
Q 41.75 14.59375 41.75 20.953125 
Q 41.75 27 37.796875 30.921875 
Q 33.84375 34.859375 27.734375 34.859375 
Q 25.25 34.859375 21.53125 33.890625 
L 22.515625 41.609375 
Q 23.390625 41.5 23.921875 41.5 
Q 29.546875 41.5 34.03125 44.421875 
Q 38.53125 47.359375 38.53125 53.46875 
Q 38.53125 58.296875 35.25 61.46875 
Q 31.984375 64.65625 26.8125 64.65625 
Q 21.6875 64.65625 18.265625 61.421875 
Q 14.84375 58.203125 13.875 51.765625 
L 5.078125 53.328125 
Q 6.6875 62.15625 12.390625 67.015625 
Q 18.109375 71.875 26.609375 71.875 
Q 32.46875 71.875 37.390625 69.359375 
Q 42.328125 66.84375 44.9375 62.5 
Q 47.5625 58.15625 47.5625 53.265625 
Q 47.5625 48.640625 45.0625 44.828125 
Q 42.578125 41.015625 37.703125 38.765625 
Q 44.046875 37.3125 47.5625 32.6875 
Q 51.078125 28.078125 51.078125 21.140625 
Q 51.078125 11.765625 44.234375 5.25 
Q 37.40625 -1.265625 26.953125 -1.265625 
Q 17.53125 -1.265625 11.296875 4.34375 
Q 5.078125 9.96875 4.203125 18.890625 
z
" id="ArialMT-33"/>
      </defs>
      <g style="fill:#262626;" transform="translate(353.16 650)scale(0.16 -0.16)">
       <use transform="translate(0 0.99375)" xlink:href="#ArialMT-31"/>
       <use transform="translate(55.615234 0.99375)" xlink:href="#ArialMT-30"/>
       <use transform="translate(112.972813 70.6875)scale(0.7)" xlink:href="#ArialMT-2212"/>
       <use transform="translate(153.851719 70.6875)scale(0.7)" xlink:href="#ArialMT-33"/>
      </g>
     </g>
    </g>
    <g id="xtick_3">
     <g id="line2d_5">
      <path clip-path="url(#p5e51cabfa2)" d="M 648 630 
L 648 86.4 
" style="fill:none;stroke:#cccccc;stroke-linecap:round;stroke-width:0.8;"/>
     </g>
     <g id="line2d_6"/>
     <g id="text_3">
      <!-- $\mathdefault{10^{-2}}$ -->
      <defs>
       <path d="M 50.34375 8.453125 
L 50.34375 0 
L 3.03125 0 
Q 2.9375 3.171875 4.046875 6.109375 
Q 5.859375 10.9375 9.828125 15.625 
Q 13.8125 20.3125 21.34375 26.46875 
Q 33.015625 36.03125 37.109375 41.625 
Q 41.21875 47.21875 41.21875 52.203125 
Q 41.21875 57.421875 37.46875 61 
Q 33.734375 64.59375 27.734375 64.59375 
Q 21.390625 64.59375 17.578125 60.78125 
Q 13.765625 56.984375 13.71875 50.25 
L 4.6875 51.171875 
Q 5.609375 61.28125 11.65625 66.578125 
Q 17.71875 71.875 27.9375 71.875 
Q 38.234375 71.875 44.234375 66.15625 
Q 50.25 60.453125 50.25 52 
Q 50.25 47.703125 48.484375 43.546875 
Q 46.734375 39.40625 42.65625 34.8125 
Q 38.578125 30.21875 29.109375 22.21875 
Q 21.1875 15.578125 18.9375 13.203125 
Q 16.703125 10.84375 15.234375 8.453125 
z
" id="ArialMT-32"/>
      </defs>
      <g style="fill:#262626;" transform="translate(632.16 650)scale(0.16 -0.16)">
       <use transform="translate(0 0.99375)" xlink:href="#ArialMT-31"/>
       <use transform="translate(55.615234 0.99375)" xlink:href="#ArialMT-30"/>
       <use transform="translate(112.972813 70.6875)scale(0.7)" xlink:href="#ArialMT-2212"/>
       <use transform="translate(153.851719 70.6875)scale(0.7)" xlink:href="#ArialMT-32"/>
      </g>
     </g>
    </g>
    <g id="xtick_4">
     <g id="line2d_7"/>
    </g>
    <g id="xtick_5">
     <g id="line2d_8"/>
    </g>
    <g id="xtick_6">
     <g id="line2d_9"/>
    </g>
    <g id="xtick_7">
     <g id="line2d_10"/>
    </g>
    <g id="xtick_8">
     <g id="line2d_11"/>
    </g>
    <g id="xtick_9">
     <g id="line2d_12"/>
    </g>
    <g id="xtick_10">
     <g id="line2d_13"/>
    </g>
    <g id="xtick_11">
     <g id="line2d_14"/>
    </g>
    <g id="xtick_12">
     <g id="line2d_15"/>
    </g>
    <g id="xtick_13">
     <g id="line2d_16"/>
    </g>
    <g id="xtick_14">
     <g id="line2d_17"/>
    </g>
    <g id="xtick_15">
     <g id="line2d_18"/>
    </g>
    <g id="xtick_16">
     <g id="line2d_19"/>
    </g>
    <g id="xtick_17">
     <g id="line2d_20"/>
    </g>
    <g id="xtick_18">
     <g id="line2d_21"/>
    </g>
    <g id="xtick_19">
     <g id="line2d_22"/>
    </g>
    <g id="text_4">
     <!-- $k_{on}^O$ ($\mu M^{-1} s^{-1}$) -->
     <defs>
      <path d="M 18.3125 75.984375 
L 27.296875 75.984375 
L 18.703125 31.6875 
L 49.515625 54.6875 
L 61.1875 54.6875 
L 26.8125 28.515625 
L 51.90625 0 
L 41.015625 0 
L 17.671875 26.703125 
L 12.5 0 
L 3.515625 0 
z
" id="DejaVuSans-Oblique-6b"/>
      <path d="M 45.609375 66.21875 
Q 37.5 66.21875 31.296875 62.28125 
Q 25.09375 58.34375 20.515625 50.296875 
Q 17.578125 45.171875 16.03125 39.40625 
Q 14.5 33.640625 14.5 27.78125 
Q 14.5 17.625 19.359375 12.109375 
Q 24.21875 6.59375 33.109375 6.59375 
Q 41.109375 6.59375 47.375 10.5625 
Q 53.65625 14.546875 58.109375 22.40625 
Q 61.078125 27.6875 62.640625 33.46875 
Q 64.203125 39.265625 64.203125 45.015625 
Q 64.203125 55.125 59.3125 60.671875 
Q 54.4375 66.21875 45.609375 66.21875 
z
M 32.8125 -1.421875 
Q 19.390625 -1.421875 11.6875 6.53125 
Q 4 14.5 4 28.328125 
Q 4 36.234375 7 44.484375 
Q 10.015625 52.734375 15.28125 59.1875 
Q 21.484375 66.75 29.09375 70.484375 
Q 36.71875 74.21875 45.90625 74.21875 
Q 59.28125 74.21875 66.984375 66.328125 
Q 74.703125 58.453125 74.703125 44.828125 
Q 74.703125 36.421875 71.765625 28.3125 
Q 68.84375 20.21875 63.375 13.625 
Q 57.125 6 49.578125 2.28125 
Q 42.046875 -1.421875 32.8125 -1.421875 
z
" id="DejaVuSans-Oblique-4f"/>
      <path d="M 25.390625 -1.421875 
Q 15.765625 -1.421875 10.171875 4.515625 
Q 4.59375 10.453125 4.59375 20.703125 
Q 4.59375 26.65625 6.515625 32.828125 
Q 8.453125 39.015625 11.53125 43.21875 
Q 16.359375 49.75 22.3125 52.875 
Q 28.265625 56 35.796875 56 
Q 45.125 56 50.859375 50.1875 
Q 56.59375 44.390625 56.59375 35.015625 
Q 56.59375 28.515625 54.6875 22.0625 
Q 52.78125 15.625 49.703125 11.375 
Q 44.921875 4.828125 38.96875 1.703125 
Q 33.015625 -1.421875 25.390625 -1.421875 
z
M 13.921875 21 
Q 13.921875 13.578125 17.015625 9.890625 
Q 20.125 6.203125 26.421875 6.203125 
Q 35.453125 6.203125 41.375 14.078125 
Q 47.3125 21.96875 47.3125 34.078125 
Q 47.3125 41.15625 44.140625 44.765625 
Q 40.96875 48.390625 34.8125 48.390625 
Q 29.734375 48.390625 25.78125 46.015625 
Q 21.828125 43.65625 18.703125 38.8125 
Q 16.40625 35.203125 15.15625 30.5625 
Q 13.921875 25.921875 13.921875 21 
z
" id="DejaVuSans-Oblique-6f"/>
      <path d="M 55.71875 33.015625 
L 49.3125 0 
L 40.28125 0 
L 46.6875 32.671875 
Q 47.125 34.96875 47.359375 36.71875 
Q 47.609375 38.484375 47.609375 39.5 
Q 47.609375 43.609375 45.015625 45.890625 
Q 42.4375 48.1875 37.796875 48.1875 
Q 30.5625 48.1875 25.34375 43.375 
Q 20.125 38.578125 18.5 30.328125 
L 12.5 0 
L 3.515625 0 
L 14.109375 54.6875 
L 23.09375 54.6875 
L 21.296875 46.09375 
Q 25.046875 50.828125 30.3125 53.40625 
Q 35.59375 56 41.40625 56 
Q 48.640625 56 52.609375 52.09375 
Q 56.59375 48.1875 56.59375 41.109375 
Q 56.59375 39.359375 56.375 37.359375 
Q 56.15625 35.359375 55.71875 33.015625 
z
" id="DejaVuSans-Oblique-6e"/>
      <path id="ArialMT-20"/>
      <path d="M 23.390625 -21.046875 
Q 16.109375 -11.859375 11.078125 0.4375 
Q 6.0625 12.75 6.0625 25.921875 
Q 6.0625 37.546875 9.8125 48.1875 
Q 14.203125 60.546875 23.390625 72.796875 
L 29.6875 72.796875 
Q 23.78125 62.640625 21.875 58.296875 
Q 18.890625 51.5625 17.1875 44.234375 
Q 15.09375 35.109375 15.09375 25.875 
Q 15.09375 2.390625 29.6875 -21.046875 
z
" id="ArialMT-28"/>
      <path d="M -1.3125 -20.796875 
L 13.375 54.6875 
L 22.40625 54.6875 
L 15.765625 20.65625 
Q 15.578125 19.625 15.421875 18.359375 
Q 15.28125 17.09375 15.28125 15.828125 
Q 15.28125 11.28125 18.140625 8.828125 
Q 21 6.390625 26.3125 6.390625 
Q 33.546875 6.390625 37.984375 10.484375 
Q 42.4375 14.59375 44 22.796875 
L 50.203125 54.6875 
L 59.1875 54.6875 
L 51.03125 12.640625 
Q 50.828125 11.71875 50.75 11.03125 
Q 50.6875 10.359375 50.6875 9.8125 
Q 50.6875 8.296875 51.296875 7.59375 
Q 51.90625 6.890625 53.21875 6.890625 
Q 53.71875 6.890625 54.5625 7.125 
Q 55.421875 7.375 56.984375 8.015625 
L 55.609375 0.78125 
Q 53.46875 -0.296875 51.515625 -0.859375 
Q 49.5625 -1.421875 47.703125 -1.421875 
Q 44.484375 -1.421875 42.65625 0.625 
Q 40.828125 2.6875 40.828125 6.296875 
Q 38.09375 2.390625 34.296875 0.484375 
Q 30.515625 -1.421875 25.390625 -1.421875 
Q 20.84375 -1.421875 17.453125 0.671875 
Q 14.0625 2.78125 12.984375 6.203125 
L 7.71875 -20.796875 
z
" id="DejaVuSans-Oblique-3bc"/>
      <path d="M 16.890625 72.90625 
L 31.6875 72.90625 
L 40.1875 23.78125 
L 68.40625 72.90625 
L 83.59375 72.90625 
L 69.390625 0 
L 59.8125 0 
L 72.21875 63.921875 
L 43.609375 14.015625 
L 33.984375 14.015625 
L 24.703125 64.109375 
L 12.3125 0 
L 2.6875 0 
z
" id="DejaVuSans-Oblique-4d"/>
      <path d="M 10.59375 35.5 
L 73.1875 35.5 
L 73.1875 27.203125 
L 10.59375 27.203125 
z
" id="DejaVuSans-2212"/>
      <path d="M 12.40625 8.296875 
L 28.515625 8.296875 
L 28.515625 63.921875 
L 10.984375 60.40625 
L 10.984375 69.390625 
L 28.421875 72.90625 
L 38.28125 72.90625 
L 38.28125 8.296875 
L 54.390625 8.296875 
L 54.390625 0 
L 12.40625 0 
z
" id="DejaVuSans-31"/>
      <path d="M 50 53.078125 
L 48.296875 44.578125 
Q 44.734375 46.53125 40.765625 47.5 
Q 36.8125 48.484375 32.625 48.484375 
Q 25.53125 48.484375 21.453125 46.0625 
Q 17.390625 43.65625 17.390625 39.5 
Q 17.390625 34.671875 26.859375 32.078125 
Q 27.59375 31.890625 27.9375 31.78125 
L 30.8125 30.90625 
Q 39.796875 28.421875 42.796875 25.6875 
Q 45.796875 22.953125 45.796875 18.21875 
Q 45.796875 9.515625 38.890625 4.046875 
Q 31.984375 -1.421875 20.796875 -1.421875 
Q 16.453125 -1.421875 11.671875 -0.578125 
Q 6.890625 0.25 1.125 2 
L 2.875 11.28125 
Q 7.8125 8.734375 12.59375 7.421875 
Q 17.390625 6.109375 21.78125 6.109375 
Q 28.375 6.109375 32.5 8.9375 
Q 36.625 11.765625 36.625 16.109375 
Q 36.625 20.796875 25.78125 23.6875 
L 24.859375 23.921875 
L 21.78125 24.703125 
Q 14.9375 26.515625 11.765625 29.46875 
Q 8.59375 32.421875 8.59375 37.015625 
Q 8.59375 45.75 15.15625 50.875 
Q 21.734375 56 33.015625 56 
Q 37.453125 56 41.671875 55.265625 
Q 45.90625 54.546875 50 53.078125 
z
" id="DejaVuSans-Oblique-73"/>
      <path d="M 12.359375 -21.046875 
L 6.0625 -21.046875 
Q 20.65625 2.390625 20.65625 25.875 
Q 20.65625 35.0625 18.5625 44.09375 
Q 16.890625 51.421875 13.921875 58.15625 
Q 12.015625 62.546875 6.0625 72.796875 
L 12.359375 72.796875 
Q 21.53125 60.546875 25.921875 48.1875 
Q 29.6875 37.546875 29.6875 25.921875 
Q 29.6875 12.75 24.625 0.4375 
Q 19.578125 -11.859375 12.359375 -21.046875 
z
" id="ArialMT-29"/>
     </defs>
     <g style="fill:#262626;" transform="translate(282.16 680.84)scale(0.26 -0.26)">
      <use transform="translate(0 0.765625)" xlink:href="#DejaVuSans-Oblique-6b"/>
      <use transform="translate(65.357865 39.046875)scale(0.7)" xlink:href="#DejaVuSans-Oblique-4f"/>
      <use transform="translate(57.910156 -26.578125)scale(0.7)" xlink:href="#DejaVuSans-Oblique-6f"/>
      <use transform="translate(100.737305 -26.578125)scale(0.7)" xlink:href="#DejaVuSans-Oblique-6e"/>
      <use transform="translate(147.836914 0.765625)" xlink:href="#ArialMT-20"/>
      <use transform="translate(175.620117 0.765625)" xlink:href="#ArialMT-28"/>
      <use transform="translate(208.920898 0.765625)" xlink:href="#DejaVuSans-Oblique-3bc"/>
      <use transform="translate(272.543945 0.765625)" xlink:href="#DejaVuSans-Oblique-4d"/>
      <use transform="translate(365.840013 39.046875)scale(0.7)" xlink:href="#DejaVuSans-2212"/>
      <use transform="translate(424.492357 39.046875)scale(0.7)" xlink:href="#DejaVuSans-31"/>
      <use transform="translate(471.762865 0.765625)" xlink:href="#DejaVuSans-Oblique-73"/>
      <use transform="translate(528.51237 39.046875)scale(0.7)" xlink:href="#DejaVuSans-2212"/>
      <use transform="translate(587.164714 39.046875)scale(0.7)" xlink:href="#DejaVuSans-31"/>
      <use transform="translate(634.435221 0.765625)" xlink:href="#ArialMT-29"/>
     </g>
    </g>
   </g>
   <g id="matplotlib.axis_2">
    <g id="ytick_1">
     <g id="line2d_23">
      <path clip-path="url(#p5e51cabfa2)" d="M 90 630 
L 648 630 
" style="fill:none;stroke:#cccccc;stroke-linecap:round;stroke-width:0.8;"/>
     </g>
     <g id="line2d_24"/>
     <g id="text_5">
      <!-- $\mathdefault{10^{-2}}$ -->
      <g style="fill:#262626;" transform="translate(54.82 638.25)scale(0.16 -0.16)">
       <use transform="translate(0 0.99375)" xlink:href="#ArialMT-31"/>
       <use transform="translate(55.615234 0.99375)" xlink:href="#ArialMT-30"/>
       <use transform="translate(112.972813 70.6875)scale(0.7)" xlink:href="#ArialMT-2212"/>
       <use transform="translate(153.851719 70.6875)scale(0.7)" xlink:href="#ArialMT-32"/>
      </g>
     </g>
    </g>
    <g id="ytick_2">
     <g id="line2d_25">
      <path clip-path="url(#p5e51cabfa2)" d="M 90 358.2 
L 648 358.2 
" style="fill:none;stroke:#cccccc;stroke-linecap:round;stroke-width:0.8;"/>
     </g>
     <g id="line2d_26"/>
     <g id="text_6">
      <!-- $\mathdefault{10^{-1}}$ -->
      <g style="fill:#262626;" transform="translate(54.82 366.45)scale(0.16 -0.16)">
       <use transform="translate(0 0.99375)" xlink:href="#ArialMT-31"/>
       <use transform="translate(55.615234 0.99375)" xlink:href="#ArialMT-30"/>
       <use transform="translate(112.972813 70.6875)scale(0.7)" xlink:href="#ArialMT-2212"/>
       <use transform="translate(153.851719 70.6875)scale(0.7)" xlink:href="#ArialMT-31"/>
      </g>
     </g>
    </g>
    <g id="ytick_3">
     <g id="line2d_27">
      <path clip-path="url(#p5e51cabfa2)" d="M 90 86.4 
L 648 86.4 
" style="fill:none;stroke:#cccccc;stroke-linecap:round;stroke-width:0.8;"/>
     </g>
     <g id="line2d_28"/>
     <g id="text_7">
      <!-- $\mathdefault{10^{0}}$ -->
      <g style="fill:#262626;" transform="translate(61.38 94.65)scale(0.16 -0.16)">
       <use transform="translate(0 0.99375)" xlink:href="#ArialMT-31"/>
       <use transform="translate(55.615234 0.99375)" xlink:href="#ArialMT-30"/>
       <use transform="translate(112.972813 70.6875)scale(0.7)" xlink:href="#ArialMT-30"/>
      </g>
     </g>
    </g>
    <g id="ytick_4">
     <g id="line2d_29"/>
    </g>
    <g id="ytick_5">
     <g id="line2d_30"/>
    </g>
    <g id="ytick_6">
     <g id="line2d_31"/>
    </g>
    <g id="ytick_7">
     <g id="line2d_32"/>
    </g>
    <g id="ytick_8">
     <g id="line2d_33"/>
    </g>
    <g id="ytick_9">
     <g id="line2d_34"/>
    </g>
    <g id="ytick_10">
     <g id="line2d_35"/>
    </g>
    <g id="ytick_11">
     <g id="line2d_36"/>
    </g>
    <g id="ytick_12">
     <g id="line2d_37"/>
    </g>
    <g id="ytick_13">
     <g id="line2d_38"/>
    </g>
    <g id="ytick_14">
     <g id="line2d_39"/>
    </g>
    <g id="ytick_15">
     <g id="line2d_40"/>
    </g>
    <g id="ytick_16">
     <g id="line2d_41"/>
    </g>
    <g id="ytick_17">
     <g id="line2d_42"/>
    </g>
    <g id="ytick_18">
     <g id="line2d_43"/>
    </g>
    <g id="ytick_19">
     <g id="line2d_44"/>
    </g>
    <g id="text_8">
     <!-- $k_{on}^C$ ($\mu M^{-1} s^{-1}$) -->
     <defs>
      <path d="M 69.484375 67.28125 
L 67.484375 56.890625 
Q 62.796875 61.625 57.546875 63.921875 
Q 52.296875 66.21875 46.1875 66.21875 
Q 37.84375 66.21875 31.515625 62.203125 
Q 25.203125 58.203125 20.609375 50 
Q 17.671875 44.734375 16.125 38.84375 
Q 14.59375 32.953125 14.59375 27 
Q 14.59375 17.046875 19.75 11.8125 
Q 24.90625 6.59375 34.71875 6.59375 
Q 41.5 6.59375 47.75 8.765625 
Q 54 10.9375 59.90625 15.28125 
L 57.625 3.609375 
Q 51.8125 1.125 45.875 -0.140625 
Q 39.9375 -1.421875 33.984375 -1.421875 
Q 19.96875 -1.421875 12.078125 6.1875 
Q 4.203125 13.8125 4.203125 27.390625 
Q 4.203125 36.078125 7.203125 44.46875 
Q 10.203125 52.875 15.828125 59.8125 
Q 21.78125 67.1875 29.421875 70.703125 
Q 37.0625 74.21875 47.21875 74.21875 
Q 53.46875 74.21875 59.0625 72.484375 
Q 64.65625 70.75 69.484375 67.28125 
z
" id="DejaVuSans-Oblique-43"/>
     </defs>
     <g style="fill:#262626;" transform="translate(43.28 445.04)rotate(-90)scale(0.26 -0.26)">
      <use transform="translate(0 0.765625)" xlink:href="#DejaVuSans-Oblique-6b"/>
      <use transform="translate(65.357865 39.046875)scale(0.7)" xlink:href="#DejaVuSans-Oblique-43"/>
      <use transform="translate(57.910156 -26.578125)scale(0.7)" xlink:href="#DejaVuSans-Oblique-6f"/>
      <use transform="translate(100.737305 -26.578125)scale(0.7)" xlink:href="#DejaVuSans-Oblique-6e"/>
      <use transform="translate(147.836914 0.765625)" xlink:href="#ArialMT-20"/>
      <use transform="translate(175.620117 0.765625)" xlink:href="#ArialMT-28"/>
      <use transform="translate(208.920898 0.765625)" xlink:href="#DejaVuSans-Oblique-3bc"/>
      <use transform="translate(272.543945 0.765625)" xlink:href="#DejaVuSans-Oblique-4d"/>
      <use transform="translate(365.840013 39.046875)scale(0.7)" xlink:href="#DejaVuSans-2212"/>
      <use transform="translate(424.492357 39.046875)scale(0.7)" xlink:href="#DejaVuSans-31"/>
      <use transform="translate(471.762865 0.765625)" xlink:href="#DejaVuSans-Oblique-73"/>
      <use transform="translate(528.51237 39.046875)scale(0.7)" xlink:href="#DejaVuSans-2212"/>
      <use transform="translate(587.164714 39.046875)scale(0.7)" xlink:href="#DejaVuSans-31"/>
      <use transform="translate(634.435221 0.765625)" xlink:href="#ArialMT-29"/>
     </g>
    </g>
   </g>
   <g id="PathCollection_1">
    <defs>
     <path d="M 0 5 
C 1.326016 5 2.597899 4.473168 3.535534 3.535534 
C 4.473168 2.597899 5 1.326016 5 0 
C 5 -1.326016 4.473168 -2.597899 3.535534 -3.535534 
C 2.597899 -4.473168 1.326016 -5 0 -5 
C -1.326016 -5 -2.597899 -4.473168 -3.535534 -3.535534 
C -4.473168 -2.597899 -5 -1.326016 -5 0 
C -5 1.326016 -4.473168 2.597899 -3.535534 3.535534 
C -2.597899 4.473168 -1.326016 5 0 5 
z
" id="m59cf74dcc2" style="stroke:#008000;stroke-opacity:0.6;"/>
    </defs>
    <g clip-path="url(#p5e51cabfa2)">
     <use style="fill:#008000;fill-opacity:0.6;stroke:#008000;stroke-opacity:0.6;" x="679.790195" xlink:href="#m59cf74dcc2" y="579.031868"/>
     <use style="fill:#008000;fill-opacity:0.6;stroke:#008000;stroke-opacity:0.6;" x="622.915262" xlink:href="#m59cf74dcc2" y="623.121866"/>
     <use style="fill:#008000;fill-opacity:0.6;stroke:#008000;stroke-opacity:0.6;" x="268.694321" xlink:href="#m59cf74dcc2" y="717.378705"/>
     <use style="fill:#008000;fill-opacity:0.6;stroke:#008000;stroke-opacity:0.6;" x="231.691788" xlink:href="#m59cf74dcc2" y="591.980864"/>
     <use style="fill:#008000;fill-opacity:0.6;stroke:#008000;stroke-opacity:0.6;" x="372.581586" xlink:href="#m59cf74dcc2" y="592.83935"/>
     <use style="fill:#008000;fill-opacity:0.6;stroke:#008000;stroke-opacity:0.6;" x="478.070895" xlink:href="#m59cf74dcc2" y="238.360911"/>
     <use style="fill:#008000;fill-opacity:0.6;stroke:#008000;stroke-opacity:0.6;" x="495.048416" xlink:href="#m59cf74dcc2" y="221.269692"/>
     <use style="fill:#008000;fill-opacity:0.6;stroke:#008000;stroke-opacity:0.6;" x="523.871351" xlink:href="#m59cf74dcc2" y="203.444171"/>
     <use style="fill:#008000;fill-opacity:0.6;stroke:#008000;stroke-opacity:0.6;" x="518.699805" xlink:href="#m59cf74dcc2" y="205.045841"/>
     <use style="fill:#008000;fill-opacity:0.6;stroke:#008000;stroke-opacity:0.6;" x="488.449608" xlink:href="#m59cf74dcc2" y="228.518443"/>
     <use style="fill:#008000;fill-opacity:0.6;stroke:#008000;stroke-opacity:0.6;" x="514.397525" xlink:href="#m59cf74dcc2" y="203.444171"/>
     <use style="fill:#008000;fill-opacity:0.6;stroke:#008000;stroke-opacity:0.6;" x="518.347059" xlink:href="#m59cf74dcc2" y="205.692644"/>
     <use style="fill:#008000;fill-opacity:0.6;stroke:#008000;stroke-opacity:0.6;" x="467.796255" xlink:href="#m59cf74dcc2" y="244.505709"/>
     <use style="fill:#008000;fill-opacity:0.6;stroke:#008000;stroke-opacity:0.6;" x="478.070895" xlink:href="#m59cf74dcc2" y="238.789374"/>
     <use style="fill:#008000;fill-opacity:0.6;stroke:#008000;stroke-opacity:0.6;" x="508.412696" xlink:href="#m59cf74dcc2" y="207.654593"/>
     <use style="fill:#008000;fill-opacity:0.6;stroke:#008000;stroke-opacity:0.6;" x="476.084487" xlink:href="#m59cf74dcc2" y="231.305381"/>
     <use style="fill:#008000;fill-opacity:0.6;stroke:#008000;stroke-opacity:0.6;" x="498.009041" xlink:href="#m59cf74dcc2" y="221.269692"/>
     <use style="fill:#008000;fill-opacity:0.6;stroke:#008000;stroke-opacity:0.6;" x="515.848658" xlink:href="#m59cf74dcc2" y="203.126429"/>
     <use style="fill:#008000;fill-opacity:0.6;stroke:#008000;stroke-opacity:0.6;" x="477.577338" xlink:href="#m59cf74dcc2" y="230.102913"/>
     <use style="fill:#008000;fill-opacity:0.6;stroke:#008000;stroke-opacity:0.6;" x="514.397525" xlink:href="#m59cf74dcc2" y="244.95711"/>
     <use style="fill:#008000;fill-opacity:0.6;stroke:#008000;stroke-opacity:0.6;" x="523.194432" xlink:href="#m59cf74dcc2" y="232.520224"/>
     <use style="fill:#008000;fill-opacity:0.6;stroke:#008000;stroke-opacity:0.6;" x="510.314904" xlink:href="#m59cf74dcc2" y="245.865124"/>
     <use style="fill:#008000;fill-opacity:0.6;stroke:#008000;stroke-opacity:0.6;" x="514.03201" xlink:href="#m59cf74dcc2" y="243.608053"/>
     <use style="fill:#008000;fill-opacity:0.6;stroke:#008000;stroke-opacity:0.6;" x="452.380008" xlink:href="#m59cf74dcc2" y="282.434771"/>
     <use style="fill:#008000;fill-opacity:0.6;stroke:#008000;stroke-opacity:0.6;" x="452.987369" xlink:href="#m59cf74dcc2" y="270.060029"/>
     <use style="fill:#008000;fill-opacity:0.6;stroke:#008000;stroke-opacity:0.6;" x="478.56245" xlink:href="#m59cf74dcc2" y="241.832963"/>
     <use style="fill:#008000;fill-opacity:0.6;stroke:#008000;stroke-opacity:0.6;" x="436.807616" xlink:href="#m59cf74dcc2" y="304.954474"/>
     <use style="fill:#008000;fill-opacity:0.6;stroke:#008000;stroke-opacity:0.6;" x="448.670489" xlink:href="#m59cf74dcc2" y="278.7648"/>
     <use style="fill:#008000;fill-opacity:0.6;stroke:#008000;stroke-opacity:0.6;" x="440.892322" xlink:href="#m59cf74dcc2" y="281.198726"/>
     <use style="fill:#008000;fill-opacity:0.6;stroke:#008000;stroke-opacity:0.6;" x="452.987369" xlink:href="#m59cf74dcc2" y="273.465301"/>
     <use style="fill:#008000;fill-opacity:0.6;stroke:#008000;stroke-opacity:0.6;" x="448.670489" xlink:href="#m59cf74dcc2" y="278.7648"/>
     <use style="fill:#008000;fill-opacity:0.6;stroke:#008000;stroke-opacity:0.6;" x="469.922066" xlink:href="#m59cf74dcc2" y="250.039906"/>
     <use style="fill:#008000;fill-opacity:0.6;stroke:#008000;stroke-opacity:0.6;" x="422.102544" xlink:href="#m59cf74dcc2" y="294.183368"/>
     <use style="fill:#008000;fill-opacity:0.6;stroke:#008000;stroke-opacity:0.6;" x="483.841898" xlink:href="#m59cf74dcc2" y="244.056028"/>
     <use style="fill:#008000;fill-opacity:0.6;stroke:#008000;stroke-opacity:0.6;" x="436.807616" xlink:href="#m59cf74dcc2" y="302.720189"/>
     <use style="fill:#008000;fill-opacity:0.6;stroke:#008000;stroke-opacity:0.6;" x="466.719197" xlink:href="#m59cf74dcc2" y="263.002589"/>
     <use style="fill:#008000;fill-opacity:0.6;stroke:#008000;stroke-opacity:0.6;" x="451.156077" xlink:href="#m59cf74dcc2" y="285.582724"/>
     <use style="fill:#008000;fill-opacity:0.6;stroke:#008000;stroke-opacity:0.6;" x="449.296683" xlink:href="#m59cf74dcc2" y="284.313451"/>
     <use style="fill:#008000;fill-opacity:0.6;stroke:#008000;stroke-opacity:0.6;" x="480.025262" xlink:href="#m59cf74dcc2" y="258.860366"/>
     <use style="fill:#008000;fill-opacity:0.6;stroke:#008000;stroke-opacity:0.6;" x="477.577338" xlink:href="#m59cf74dcc2" y="259.882374"/>
     <use style="fill:#008000;fill-opacity:0.6;stroke:#008000;stroke-opacity:0.6;" x="498.841816" xlink:href="#m59cf74dcc2" y="243.161771"/>
     <use style="fill:#008000;fill-opacity:0.6;stroke:#008000;stroke-opacity:0.6;" x="459.474805" xlink:href="#m59cf74dcc2" y="276.380047"/>
     <use style="fill:#008000;fill-opacity:0.6;stroke:#008000;stroke-opacity:0.6;" x="455.386817" xlink:href="#m59cf74dcc2" y="281.815131"/>
     <use style="fill:#008000;fill-opacity:0.6;stroke:#008000;stroke-opacity:0.6;" x="463.429362" xlink:href="#m59cf74dcc2" y="261.953326"/>
     <use style="fill:#008000;fill-opacity:0.6;stroke:#008000;stroke-opacity:0.6;" x="457.155726" xlink:href="#m59cf74dcc2" y="271.750386"/>
     <use style="fill:#008000;fill-opacity:0.6;stroke:#008000;stroke-opacity:0.6;" x="457.73967" xlink:href="#m59cf74dcc2" y="269.501913"/>
     <use style="fill:#008000;fill-opacity:0.6;stroke:#008000;stroke-opacity:0.6;" x="467.796255" xlink:href="#m59cf74dcc2" y="262.476792"/>
     <use style="fill:#008000;fill-opacity:0.6;stroke:#008000;stroke-opacity:0.6;" x="473.042449" xlink:href="#m59cf74dcc2" y="260.396716"/>
     <use style="fill:#008000;fill-opacity:0.6;stroke:#008000;stroke-opacity:0.6;" x="466.719197" xlink:href="#m59cf74dcc2" y="268.393536"/>
     <use style="fill:#008000;fill-opacity:0.6;stroke:#008000;stroke-opacity:0.6;" x="532.971359" xlink:href="#m59cf74dcc2" y="220.900236"/>
     <use style="fill:#008000;fill-opacity:0.6;stroke:#008000;stroke-opacity:0.6;" x="530.759623" xlink:href="#m59cf74dcc2" y="216.199657"/>
     <use style="fill:#008000;fill-opacity:0.6;stroke:#008000;stroke-opacity:0.6;" x="510.691788" xlink:href="#m59cf74dcc2" y="229.704797"/>
     <use style="fill:#008000;fill-opacity:0.6;stroke:#008000;stroke-opacity:0.6;" x="512.558823" xlink:href="#m59cf74dcc2" y="228.912571"/>
     <use style="fill:#008000;fill-opacity:0.6;stroke:#008000;stroke-opacity:0.6;" x="542.886552" xlink:href="#m59cf74dcc2" y="191.933605"/>
     <use style="fill:#008000;fill-opacity:0.6;stroke:#008000;stroke-opacity:0.6;" x="486.627496" xlink:href="#m59cf74dcc2" y="241.39333"/>
     <use style="fill:#008000;fill-opacity:0.6;stroke:#008000;stroke-opacity:0.6;" x="532.971359" xlink:href="#m59cf74dcc2" y="221.640309"/>
     <use style="fill:#008000;fill-opacity:0.6;stroke:#008000;stroke-opacity:0.6;" x="504.119655" xlink:href="#m59cf74dcc2" y="250.039906"/>
     <use style="fill:#008000;fill-opacity:0.6;stroke:#008000;stroke-opacity:0.6;" x="508.412696" xlink:href="#m59cf74dcc2" y="247.240377"/>
     <use style="fill:#008000;fill-opacity:0.6;stroke:#008000;stroke-opacity:0.6;" x="434.712437" xlink:href="#m59cf74dcc2" y="292.142258"/>
     <use style="fill:#008000;fill-opacity:0.6;stroke:#008000;stroke-opacity:0.6;" x="487.541977" xlink:href="#m59cf74dcc2" y="252.424658"/>
     <use style="fill:#008000;fill-opacity:0.6;stroke:#008000;stroke-opacity:0.6;" x="441.559917" xlink:href="#m59cf74dcc2" y="289.474546"/>
     <use style="fill:#008000;fill-opacity:0.6;stroke:#008000;stroke-opacity:0.6;" x="552.851191" xlink:href="#m59cf74dcc2" y="208.647934"/>
     <use style="fill:#008000;fill-opacity:0.6;stroke:#008000;stroke-opacity:0.6;" x="514.761941" xlink:href="#m59cf74dcc2" y="240.084172"/>
     <use style="fill:#008000;fill-opacity:0.6;stroke:#008000;stroke-opacity:0.6;" x="496.326123" xlink:href="#m59cf74dcc2" y="253.878984"/>
     <use style="fill:#008000;fill-opacity:0.6;stroke:#008000;stroke-opacity:0.6;" x="521.140685" xlink:href="#m59cf74dcc2" y="239.219397"/>
     <use style="fill:#008000;fill-opacity:0.6;stroke:#008000;stroke-opacity:0.6;" x="497.590498" xlink:href="#m59cf74dcc2" y="259.370264"/>
     <use style="fill:#008000;fill-opacity:0.6;stroke:#008000;stroke-opacity:0.6;" x="507.25687" xlink:href="#m59cf74dcc2" y="243.608053"/>
     <use style="fill:#008000;fill-opacity:0.6;stroke:#008000;stroke-opacity:0.6;" x="499.256066" xlink:href="#m59cf74dcc2" y="261.432172"/>
     <use style="fill:#008000;fill-opacity:0.6;stroke:#008000;stroke-opacity:0.6;" x="468.331214" xlink:href="#m59cf74dcc2" y="292.142258"/>
     <use style="fill:#008000;fill-opacity:0.6;stroke:#008000;stroke-opacity:0.6;" x="490.689379" xlink:href="#m59cf74dcc2" y="272.89089"/>
     <use style="fill:#008000;fill-opacity:0.6;stroke:#008000;stroke-opacity:0.6;" x="458.899183" xlink:href="#m59cf74dcc2" y="301.253819"/>
     <use style="fill:#008000;fill-opacity:0.6;stroke:#008000;stroke-opacity:0.6;" x="510.314904" xlink:href="#m59cf74dcc2" y="251.464968"/>
     <use style="fill:#008000;fill-opacity:0.6;stroke:#008000;stroke-opacity:0.6;" x="482.89895" xlink:href="#m59cf74dcc2" y="281.198726"/>
     <use style="fill:#008000;fill-opacity:0.6;stroke:#008000;stroke-opacity:0.6;" x="551.783623" xlink:href="#m59cf74dcc2" y="222.759191"/>
     <use style="fill:#008000;fill-opacity:0.6;stroke:#008000;stroke-opacity:0.6;" x="557.797517" xlink:href="#m59cf74dcc2" y="200.304592"/>
     <use style="fill:#008000;fill-opacity:0.6;stroke:#008000;stroke-opacity:0.6;" x="525.213948" xlink:href="#m59cf74dcc2" y="225.411915"/>
     <use style="fill:#008000;fill-opacity:0.6;stroke:#008000;stroke-opacity:0.6;" x="531.712458" xlink:href="#m59cf74dcc2" y="219.070102"/>
     <use style="fill:#008000;fill-opacity:0.6;stroke:#008000;stroke-opacity:0.6;" x="525.879709" xlink:href="#m59cf74dcc2" y="231.708941"/>
     <use style="fill:#008000;fill-opacity:0.6;stroke:#008000;stroke-opacity:0.6;" x="526.541832" xlink:href="#m59cf74dcc2" y="232.113886"/>
     <use style="fill:#008000;fill-opacity:0.6;stroke:#008000;stroke-opacity:0.6;" x="507.643372" xlink:href="#m59cf74dcc2" y="245.410244"/>
     <use style="fill:#008000;fill-opacity:0.6;stroke:#008000;stroke-opacity:0.6;" x="550.976729" xlink:href="#m59cf74dcc2" y="218.707456"/>
     <use style="fill:#008000;fill-opacity:0.6;stroke:#008000;stroke-opacity:0.6;" x="555.73941" xlink:href="#m59cf74dcc2" y="198.765571"/>
     <use style="fill:#008000;fill-opacity:0.6;stroke:#008000;stroke-opacity:0.6;" x="555.479671" xlink:href="#m59cf74dcc2" y="205.692644"/>
     <use style="fill:#008000;fill-opacity:0.6;stroke:#008000;stroke-opacity:0.6;" x="498.009041" xlink:href="#m59cf74dcc2" y="257.343755"/>
     <use style="fill:#008000;fill-opacity:0.6;stroke:#008000;stroke-opacity:0.6;" x="475.582755" xlink:href="#m59cf74dcc2" y="275.205498"/>
     <use style="fill:#008000;fill-opacity:0.6;stroke:#008000;stroke-opacity:0.6;" x="507.25687" xlink:href="#m59cf74dcc2" y="244.505709"/>
     <use style="fill:#008000;fill-opacity:0.6;stroke:#008000;stroke-opacity:0.6;" x="466.719197" xlink:href="#m59cf74dcc2" y="291.469657"/>
     <use style="fill:#008000;fill-opacity:0.6;stroke:#008000;stroke-opacity:0.6;" x="282.06913" xlink:href="#m59cf74dcc2" y="430.716983"/>
     <use style="fill:#008000;fill-opacity:0.6;stroke:#008000;stroke-opacity:0.6;" x="130.769722" xlink:href="#m59cf74dcc2" y="589.442245"/>
     <use style="fill:#008000;fill-opacity:0.6;stroke:#008000;stroke-opacity:0.6;" x="244.533364" xlink:href="#m59cf74dcc2" y="540.746424"/>
     <use style="fill:#008000;fill-opacity:0.6;stroke:#008000;stroke-opacity:0.6;" x="398.911582" xlink:href="#m59cf74dcc2" y="409.96167"/>
     <use style="fill:#008000;fill-opacity:0.6;stroke:#008000;stroke-opacity:0.6;" x="436.11324" xlink:href="#m59cf74dcc2" y="382.202615"/>
     <use style="fill:#008000;fill-opacity:0.6;stroke:#008000;stroke-opacity:0.6;" x="441.559917" xlink:href="#m59cf74dcc2" y="353.570338"/>
     <use style="fill:#008000;fill-opacity:0.6;stroke:#008000;stroke-opacity:0.6;" x="414.854447" xlink:href="#m59cf74dcc2" y="348.027478"/>
     <use style="fill:#008000;fill-opacity:0.6;stroke:#008000;stroke-opacity:0.6;" x="379.441993" xlink:href="#m59cf74dcc2" y="353.570338"/>
     <use style="fill:#008000;fill-opacity:0.6;stroke:#008000;stroke-opacity:0.6;" x="327.501079" xlink:href="#m59cf74dcc2" y="429.63104"/>
     <use style="fill:#008000;fill-opacity:0.6;stroke:#008000;stroke-opacity:0.6;" x="324.739292" xlink:href="#m59cf74dcc2" y="383.80468"/>
     <use style="fill:#008000;fill-opacity:0.6;stroke:#008000;stroke-opacity:0.6;" x="345.396554" xlink:href="#m59cf74dcc2" y="372.088501"/>
     <use style="fill:#008000;fill-opacity:0.6;stroke:#008000;stroke-opacity:0.6;" x="274.645739" xlink:href="#m59cf74dcc2" y="476.202563"/>
     <use style="fill:#008000;fill-opacity:0.6;stroke:#008000;stroke-opacity:0.6;" x="311.662165" xlink:href="#m59cf74dcc2" y="441.923885"/>
     <use style="fill:#008000;fill-opacity:0.6;stroke:#008000;stroke-opacity:0.6;" x="549.072813" xlink:href="#m59cf74dcc2" y="288.162963"/>
     <use style="fill:#008000;fill-opacity:0.6;stroke:#008000;stroke-opacity:0.6;" x="408.026265" xlink:href="#m59cf74dcc2" y="294.183368"/>
     <use style="fill:#008000;fill-opacity:0.6;stroke:#008000;stroke-opacity:0.6;" x="442.223854" xlink:href="#m59cf74dcc2" y="284.313451"/>
     <use style="fill:#008000;fill-opacity:0.6;stroke:#008000;stroke-opacity:0.6;" x="372.581586" xlink:href="#m59cf74dcc2" y="368.814824"/>
     <use style="fill:#008000;fill-opacity:0.6;stroke:#008000;stroke-opacity:0.6;" x="463.983908" xlink:href="#m59cf74dcc2" y="205.692644"/>
     <use style="fill:#008000;fill-opacity:0.6;stroke:#008000;stroke-opacity:0.6;" x="378.325228" xlink:href="#m59cf74dcc2" y="334.727398"/>
     <use style="fill:#008000;fill-opacity:0.6;stroke:#008000;stroke-opacity:0.6;" x="448.670489" xlink:href="#m59cf74dcc2" y="287.512597"/>
     <use style="fill:#008000;fill-opacity:0.6;stroke:#008000;stroke-opacity:0.6;" x="424.425327" xlink:href="#m59cf74dcc2" y="300.527409"/>
     <use style="fill:#008000;fill-opacity:0.6;stroke:#008000;stroke-opacity:0.6;" x="450.539444" xlink:href="#m59cf74dcc2" y="273.465301"/>
     <use style="fill:#008000;fill-opacity:0.6;stroke:#008000;stroke-opacity:0.6;" x="411.488448" xlink:href="#m59cf74dcc2" y="320.180864"/>
     <use style="fill:#008000;fill-opacity:0.6;stroke:#008000;stroke-opacity:0.6;" x="486.627496" xlink:href="#m59cf74dcc2" y="238.360911"/>
     <use style="fill:#008000;fill-opacity:0.6;stroke:#008000;stroke-opacity:0.6;" x="377.198074" xlink:href="#m59cf74dcc2" y="339.667083"/>
     <use style="fill:#008000;fill-opacity:0.6;stroke:#008000;stroke-opacity:0.6;" x="388.023855" xlink:href="#m59cf74dcc2" y="334.727398"/>
     <use style="fill:#008000;fill-opacity:0.6;stroke:#008000;stroke-opacity:0.6;" x="469.3941" xlink:href="#m59cf74dcc2" y="263.002589"/>
     <use style="fill:#008000;fill-opacity:0.6;stroke:#008000;stroke-opacity:0.6;" x="433.295249" xlink:href="#m59cf74dcc2" y="294.183368"/>
     <use style="fill:#008000;fill-opacity:0.6;stroke:#008000;stroke-opacity:0.6;" x="436.11324" xlink:href="#m59cf74dcc2" y="288.816933"/>
     <use style="fill:#008000;fill-opacity:0.6;stroke:#008000;stroke-opacity:0.6;" x="431.137895" xlink:href="#m59cf74dcc2" y="299.805442"/>
     <use style="fill:#008000;fill-opacity:0.6;stroke:#008000;stroke-opacity:0.6;" x="425.949475" xlink:href="#m59cf74dcc2" y="297.665663"/>
     <use style="fill:#008000;fill-opacity:0.6;stroke:#008000;stroke-opacity:0.6;" x="425.189798" xlink:href="#m59cf74dcc2" y="291.469657"/>
     <use style="fill:#008000;fill-opacity:0.6;stroke:#008000;stroke-opacity:0.6;" x="411.488448" xlink:href="#m59cf74dcc2" y="307.231868"/>
     <use style="fill:#008000;fill-opacity:0.6;stroke:#008000;stroke-opacity:0.6;" x="433.295249" xlink:href="#m59cf74dcc2" y="285.582724"/>
     <use style="fill:#008000;fill-opacity:0.6;stroke:#008000;stroke-opacity:0.6;" x="436.11324" xlink:href="#m59cf74dcc2" y="294.183368"/>
     <use style="fill:#008000;fill-opacity:0.6;stroke:#008000;stroke-opacity:0.6;" x="498.009041" xlink:href="#m59cf74dcc2" y="235.404447"/>
     <use style="fill:#008000;fill-opacity:0.6;stroke:#008000;stroke-opacity:0.6;" x="454.791395" xlink:href="#m59cf74dcc2" y="297.665663"/>
     <use style="fill:#008000;fill-opacity:0.6;stroke:#008000;stroke-opacity:0.6;" x="429.67802" xlink:href="#m59cf74dcc2" y="299.805442"/>
     <use style="fill:#008000;fill-opacity:0.6;stroke:#008000;stroke-opacity:0.6;" x="391.091568" xlink:href="#m59cf74dcc2" y="328.141717"/>
     <use style="fill:#008000;fill-opacity:0.6;stroke:#008000;stroke-opacity:0.6;" x="444.843808" xlink:href="#m59cf74dcc2" y="275.205498"/>
     <use style="fill:#008000;fill-opacity:0.6;stroke:#008000;stroke-opacity:0.6;" x="475.582755" xlink:href="#m59cf74dcc2" y="257.343755"/>
     <use style="fill:#008000;fill-opacity:0.6;stroke:#008000;stroke-opacity:0.6;" x="472.527934" xlink:href="#m59cf74dcc2" y="258.860366"/>
     <use style="fill:#008000;fill-opacity:0.6;stroke:#008000;stroke-opacity:0.6;" x="475.582755" xlink:href="#m59cf74dcc2" y="259.370264"/>
     <use style="fill:#008000;fill-opacity:0.6;stroke:#008000;stroke-opacity:0.6;" x="425.189798" xlink:href="#m59cf74dcc2" y="296.260394"/>
     <use style="fill:#008000;fill-opacity:0.6;stroke:#008000;stroke-opacity:0.6;" x="469.3941" xlink:href="#m59cf74dcc2" y="274.622577"/>
     <use style="fill:#008000;fill-opacity:0.6;stroke:#008000;stroke-opacity:0.6;" x="454.791395" xlink:href="#m59cf74dcc2" y="278.7648"/>
     <use style="fill:#008000;fill-opacity:0.6;stroke:#008000;stroke-opacity:0.6;" x="434.005915" xlink:href="#m59cf74dcc2" y="299.087864"/>
     <use style="fill:#008000;fill-opacity:0.6;stroke:#008000;stroke-opacity:0.6;" x="436.807616" xlink:href="#m59cf74dcc2" y="292.142258"/>
     <use style="fill:#008000;fill-opacity:0.6;stroke:#008000;stroke-opacity:0.6;" x="418.934568" xlink:href="#m59cf74dcc2" y="300.527409"/>
     <use style="fill:#008000;fill-opacity:0.6;stroke:#008000;stroke-opacity:0.6;" x="458.320814" xlink:href="#m59cf74dcc2" y="264.59418"/>
     <use style="fill:#008000;fill-opacity:0.6;stroke:#008000;stroke-opacity:0.6;" x="436.807616" xlink:href="#m59cf74dcc2" y="290.800866"/>
     <use style="fill:#008000;fill-opacity:0.6;stroke:#008000;stroke-opacity:0.6;" x="467.796255" xlink:href="#m59cf74dcc2" y="268.946424"/>
     <use style="fill:#008000;fill-opacity:0.6;stroke:#008000;stroke-opacity:0.6;" x="422.881763" xlink:href="#m59cf74dcc2" y="309.554066"/>
     <use style="fill:#008000;fill-opacity:0.6;stroke:#008000;stroke-opacity:0.6;" x="447.408309" xlink:href="#m59cf74dcc2" y="282.434771"/>
     <use style="fill:#008000;fill-opacity:0.6;stroke:#008000;stroke-opacity:0.6;" x="438.184541" xlink:href="#m59cf74dcc2" y="289.474546"/>
     <use style="fill:#008000;fill-opacity:0.6;stroke:#008000;stroke-opacity:0.6;" x="449.919657" xlink:href="#m59cf74dcc2" y="279.368593"/>
     <use style="fill:#008000;fill-opacity:0.6;stroke:#008000;stroke-opacity:0.6;" x="488.449608" xlink:href="#m59cf74dcc2" y="252.907445"/>
     <use style="fill:#008000;fill-opacity:0.6;stroke:#008000;stroke-opacity:0.6;" x="470.971148" xlink:href="#m59cf74dcc2" y="267.843227"/>
     <use style="fill:#008000;fill-opacity:0.6;stroke:#008000;stroke-opacity:0.6;" x="422.102544" xlink:href="#m59cf74dcc2" y="306.467844"/>
     <use style="fill:#008000;fill-opacity:0.6;stroke:#008000;stroke-opacity:0.6;" x="444.843808" xlink:href="#m59cf74dcc2" y="283.683897"/>
     <use style="fill:#008000;fill-opacity:0.6;stroke:#008000;stroke-opacity:0.6;" x="435.414863" xlink:href="#m59cf74dcc2" y="292.142258"/>
     <use style="fill:#008000;fill-opacity:0.6;stroke:#008000;stroke-opacity:0.6;" x="419.734361" xlink:href="#m59cf74dcc2" y="302.720189"/>
     <use style="fill:#008000;fill-opacity:0.6;stroke:#008000;stroke-opacity:0.6;" x="458.320814" xlink:href="#m59cf74dcc2" y="276.380047"/>
     <use style="fill:#008000;fill-opacity:0.6;stroke:#008000;stroke-opacity:0.6;" x="418.934568" xlink:href="#m59cf74dcc2" y="296.960937"/>
     <use style="fill:#008000;fill-opacity:0.6;stroke:#008000;stroke-opacity:0.6;" x="461.75033" xlink:href="#m59cf74dcc2" y="272.31926"/>
     <use style="fill:#008000;fill-opacity:0.6;stroke:#008000;stroke-opacity:0.6;" x="431.137895" xlink:href="#m59cf74dcc2" y="290.135843"/>
     <use style="fill:#008000;fill-opacity:0.6;stroke:#008000;stroke-opacity:0.6;" x="429.67802" xlink:href="#m59cf74dcc2" y="290.800866"/>
     <use style="fill:#008000;fill-opacity:0.6;stroke:#008000;stroke-opacity:0.6;" x="435.414863" xlink:href="#m59cf74dcc2" y="288.162963"/>
     <use style="fill:#008000;fill-opacity:0.6;stroke:#008000;stroke-opacity:0.6;" x="414.021673" xlink:href="#m59cf74dcc2" y="304.205004"/>
     <use style="fill:#008000;fill-opacity:0.6;stroke:#008000;stroke-opacity:0.6;" x="405.363121" xlink:href="#m59cf74dcc2" y="313.528894"/>
     <use style="fill:#008000;fill-opacity:0.6;stroke:#008000;stroke-opacity:0.6;" x="431.137895" xlink:href="#m59cf74dcc2" y="290.135843"/>
     <use style="fill:#008000;fill-opacity:0.6;stroke:#008000;stroke-opacity:0.6;" x="427.454689" xlink:href="#m59cf74dcc2" y="293.499069"/>
     <use style="fill:#008000;fill-opacity:0.6;stroke:#008000;stroke-opacity:0.6;" x="431.137895" xlink:href="#m59cf74dcc2" y="287.512597"/>
     <use style="fill:#008000;fill-opacity:0.6;stroke:#008000;stroke-opacity:0.6;" x="506.480149" xlink:href="#m59cf74dcc2" y="222.759191"/>
     <use style="fill:#008000;fill-opacity:0.6;stroke:#008000;stroke-opacity:0.6;" x="467.258923" xlink:href="#m59cf74dcc2" y="255.846383"/>
     <use style="fill:#008000;fill-opacity:0.6;stroke:#008000;stroke-opacity:0.6;" x="378.325228" xlink:href="#m59cf74dcc2" y="362.405476"/>
     <use style="fill:#008000;fill-opacity:0.6;stroke:#008000;stroke-opacity:0.6;" x="359.42248" xlink:href="#m59cf74dcc2" y="376.69161"/>
     <use style="fill:#008000;fill-opacity:0.6;stroke:#008000;stroke-opacity:0.6;" x="374.911814" xlink:href="#m59cf74dcc2" y="344.822541"/>
     <use style="fill:#008000;fill-opacity:0.6;stroke:#008000;stroke-opacity:0.6;" x="487.996642" xlink:href="#m59cf74dcc2" y="262.476792"/>
     <use style="fill:#008000;fill-opacity:0.6;stroke:#008000;stroke-opacity:0.6;" x="475.582755" xlink:href="#m59cf74dcc2" y="250.039906"/>
     <use style="fill:#008000;fill-opacity:0.6;stroke:#008000;stroke-opacity:0.6;" x="442.223854" xlink:href="#m59cf74dcc2" y="285.582724"/>
     <use style="fill:#008000;fill-opacity:0.6;stroke:#008000;stroke-opacity:0.6;" x="428.941434" xlink:href="#m59cf74dcc2" y="293.499069"/>
     <use style="fill:#008000;fill-opacity:0.6;stroke:#008000;stroke-opacity:0.6;" x="450.539444" xlink:href="#m59cf74dcc2" y="266.207525"/>
     <use style="fill:#008000;fill-opacity:0.6;stroke:#008000;stroke-opacity:0.6;" x="471.492302" xlink:href="#m59cf74dcc2" y="253.392215"/>
     <use style="fill:#008000;fill-opacity:0.6;stroke:#008000;stroke-opacity:0.6;" x="442.223854" xlink:href="#m59cf74dcc2" y="284.946382"/>
     <use style="fill:#008000;fill-opacity:0.6;stroke:#008000;stroke-opacity:0.6;" x="478.070895" xlink:href="#m59cf74dcc2" y="245.410244"/>
     <use style="fill:#008000;fill-opacity:0.6;stroke:#008000;stroke-opacity:0.6;" x="418.934568" xlink:href="#m59cf74dcc2" y="303.460262"/>
     <use style="fill:#008000;fill-opacity:0.6;stroke:#008000;stroke-opacity:0.6;" x="399.854529" xlink:href="#m59cf74dcc2" y="328.141717"/>
     <use style="fill:#008000;fill-opacity:0.6;stroke:#008000;stroke-opacity:0.6;" x="434.712437" xlink:href="#m59cf74dcc2" y="301.984727"/>
     <use style="fill:#008000;fill-opacity:0.6;stroke:#008000;stroke-opacity:0.6;" x="306.902083" xlink:href="#m59cf74dcc2" y="442.645852"/>
     <use style="fill:#008000;fill-opacity:0.6;stroke:#008000;stroke-opacity:0.6;" x="410.632132" xlink:href="#m59cf74dcc2" y="320.180864"/>
     <use style="fill:#008000;fill-opacity:0.6;stroke:#008000;stroke-opacity:0.6;" x="435.414863" xlink:href="#m59cf74dcc2" y="290.135843"/>
     <use style="fill:#008000;fill-opacity:0.6;stroke:#008000;stroke-opacity:0.6;" x="437.498034" xlink:href="#m59cf74dcc2" y="301.984727"/>
     <use style="fill:#008000;fill-opacity:0.6;stroke:#008000;stroke-opacity:0.6;" x="477.081762" xlink:href="#m59cf74dcc2" y="252.907445"/>
     <use style="fill:#008000;fill-opacity:0.6;stroke:#008000;stroke-opacity:0.6;" x="453.5917" xlink:href="#m59cf74dcc2" y="280.585523"/>
    </g>
   </g>
   <g id="line2d_45">
    <path clip-path="url(#p5e51cabfa2)" d="M 130.177274 721 
L 649.205663 66.889951 
" style="fill:none;stroke:#bf00bf;stroke-dasharray:11.1,4.8;stroke-dashoffset:0;stroke-width:3;"/>
   </g>
   <g id="line2d_46">
    <path clip-path="url(#p5e51cabfa2)" d="M 90 660.263737 
L 649.205663 82.90118 
" style="fill:none;stroke:#008000;stroke-dasharray:11.1,4.8;stroke-dashoffset:0;stroke-width:3;"/>
   </g>
   <g id="patch_3">
    <path d="M 90 630 
L 90 86.4 
" style="fill:none;stroke:#cccccc;stroke-linecap:square;stroke-linejoin:miter;"/>
   </g>
   <g id="patch_4">
    <path d="M 648 630 
L 648 86.4 
" style="fill:none;stroke:#cccccc;stroke-linecap:square;stroke-linejoin:miter;"/>
   </g>
   <g id="patch_5">
    <path d="M 90 630 
L 648 630 
" style="fill:none;stroke:#cccccc;stroke-linecap:square;stroke-linejoin:miter;"/>
   </g>
   <g id="patch_6">
    <path d="M 90 86.4 
L 648 86.4 
" style="fill:none;stroke:#cccccc;stroke-linecap:square;stroke-linejoin:miter;"/>
   </g>
   <g id="legend_1">
    <g id="patch_7">
     <path d="M 101.2 144.465 
L 228.8875 144.465 
Q 232.0875 144.465 232.0875 141.265 
L 232.0875 97.6 
Q 232.0875 94.4 228.8875 94.4 
L 101.2 94.4 
Q 98 94.4 98 97.6 
L 98 141.265 
Q 98 144.465 101.2 144.465 
z
" style="fill:#ffffff;opacity:0.8;stroke:#cccccc;stroke-linejoin:miter;"/>
    </g>
    <g id="PathCollection_2">
     <defs>
      <path d="M 0 5 
C 1.326016 5 2.597899 4.473168 3.535534 3.535534 
C 4.473168 2.597899 5 1.326016 5 0 
C 5 -1.326016 4.473168 -2.597899 3.535534 -3.535534 
C 2.597899 -4.473168 1.326016 -5 0 -5 
C -1.326016 -5 -2.597899 -4.473168 -3.535534 -3.535534 
C -4.473168 -2.597899 -5 -1.326016 -5 0 
C -5 1.326016 -4.473168 2.597899 -3.535534 3.535534 
C -2.597899 4.473168 -1.326016 5 0 5 
z
" id="m3ea631156e" style="stroke:#bf00bf;stroke-opacity:0.6;"/>
     </defs>
     <g>
      <use style="fill:#bf00bf;fill-opacity:0.6;stroke:#bf00bf;stroke-opacity:0.6;" x="120.4" xlink:href="#m3ea631156e" y="108.0525"/>
     </g>
    </g>
    <g id="text_9">
     <!-- Savir 2010 -->
     <defs>
      <path d="M 4.5 23 
L 13.421875 23.78125 
Q 14.0625 18.40625 16.375 14.96875 
Q 18.703125 11.53125 23.578125 9.40625 
Q 28.46875 7.28125 34.578125 7.28125 
Q 39.984375 7.28125 44.140625 8.890625 
Q 48.296875 10.5 50.3125 13.296875 
Q 52.34375 16.109375 52.34375 19.4375 
Q 52.34375 22.796875 50.390625 25.3125 
Q 48.4375 27.828125 43.953125 29.546875 
Q 41.0625 30.671875 31.203125 33.03125 
Q 21.34375 35.40625 17.390625 37.5 
Q 12.25 40.1875 9.734375 44.15625 
Q 7.234375 48.140625 7.234375 53.078125 
Q 7.234375 58.5 10.296875 63.203125 
Q 13.375 67.921875 19.28125 70.359375 
Q 25.203125 72.796875 32.421875 72.796875 
Q 40.375 72.796875 46.453125 70.234375 
Q 52.546875 67.671875 55.8125 62.6875 
Q 59.078125 57.71875 59.328125 51.421875 
L 50.25 50.734375 
Q 49.515625 57.515625 45.28125 60.984375 
Q 41.0625 64.453125 32.8125 64.453125 
Q 24.21875 64.453125 20.28125 61.296875 
Q 16.359375 58.15625 16.359375 53.71875 
Q 16.359375 49.859375 19.140625 47.359375 
Q 21.875 44.875 33.421875 42.265625 
Q 44.96875 39.65625 49.265625 37.703125 
Q 55.515625 34.8125 58.484375 30.390625 
Q 61.46875 25.984375 61.46875 20.21875 
Q 61.46875 14.5 58.203125 9.4375 
Q 54.9375 4.390625 48.796875 1.578125 
Q 42.671875 -1.21875 35.015625 -1.21875 
Q 25.296875 -1.21875 18.71875 1.609375 
Q 12.15625 4.4375 8.421875 10.125 
Q 4.6875 15.828125 4.5 23 
z
" id="ArialMT-53"/>
      <path d="M 40.4375 6.390625 
Q 35.546875 2.25 31.03125 0.53125 
Q 26.515625 -1.171875 21.34375 -1.171875 
Q 12.796875 -1.171875 8.203125 3 
Q 3.609375 7.171875 3.609375 13.671875 
Q 3.609375 17.484375 5.34375 20.625 
Q 7.078125 23.78125 9.890625 25.6875 
Q 12.703125 27.59375 16.21875 28.5625 
Q 18.796875 29.25 24.03125 29.890625 
Q 34.671875 31.15625 39.703125 32.90625 
Q 39.75 34.71875 39.75 35.203125 
Q 39.75 40.578125 37.25 42.78125 
Q 33.890625 45.75 27.25 45.75 
Q 21.046875 45.75 18.09375 43.578125 
Q 15.140625 41.40625 13.71875 35.890625 
L 5.125 37.0625 
Q 6.296875 42.578125 8.984375 45.96875 
Q 11.671875 49.359375 16.75 51.1875 
Q 21.828125 53.03125 28.515625 53.03125 
Q 35.15625 53.03125 39.296875 51.46875 
Q 43.453125 49.90625 45.40625 47.53125 
Q 47.359375 45.171875 48.140625 41.546875 
Q 48.578125 39.3125 48.578125 33.453125 
L 48.578125 21.734375 
Q 48.578125 9.46875 49.140625 6.21875 
Q 49.703125 2.984375 51.375 0 
L 42.1875 0 
Q 40.828125 2.734375 40.4375 6.390625 
z
M 39.703125 26.03125 
Q 34.90625 24.078125 25.34375 22.703125 
Q 19.921875 21.921875 17.671875 20.9375 
Q 15.4375 19.96875 14.203125 18.09375 
Q 12.984375 16.21875 12.984375 13.921875 
Q 12.984375 10.40625 15.640625 8.0625 
Q 18.3125 5.71875 23.4375 5.71875 
Q 28.515625 5.71875 32.46875 7.9375 
Q 36.421875 10.15625 38.28125 14.015625 
Q 39.703125 17 39.703125 22.796875 
z
" id="ArialMT-61"/>
      <path d="M 21 0 
L 1.265625 51.859375 
L 10.546875 51.859375 
L 21.6875 20.796875 
Q 23.484375 15.765625 25 10.359375 
Q 26.171875 14.453125 28.265625 20.21875 
L 39.796875 51.859375 
L 48.828125 51.859375 
L 29.203125 0 
z
" id="ArialMT-76"/>
      <path d="M 6.640625 61.46875 
L 6.640625 71.578125 
L 15.4375 71.578125 
L 15.4375 61.46875 
z
M 6.640625 0 
L 6.640625 51.859375 
L 15.4375 51.859375 
L 15.4375 0 
z
" id="ArialMT-69"/>
      <path d="M 6.5 0 
L 6.5 51.859375 
L 14.40625 51.859375 
L 14.40625 44 
Q 17.4375 49.515625 20 51.265625 
Q 22.5625 53.03125 25.640625 53.03125 
Q 30.078125 53.03125 34.671875 50.203125 
L 31.640625 42.046875 
Q 28.421875 43.953125 25.203125 43.953125 
Q 22.3125 43.953125 20.015625 42.21875 
Q 17.71875 40.484375 16.75 37.40625 
Q 15.28125 32.71875 15.28125 27.15625 
L 15.28125 0 
z
" id="ArialMT-72"/>
     </defs>
     <g style="fill:#262626;" transform="translate(149.2 112.2525)scale(0.16 -0.16)">
      <use xlink:href="#ArialMT-53"/>
      <use x="66.699219" xlink:href="#ArialMT-61"/>
      <use x="122.314453" xlink:href="#ArialMT-76"/>
      <use x="172.314453" xlink:href="#ArialMT-69"/>
      <use x="194.53125" xlink:href="#ArialMT-72"/>
      <use x="227.832031" xlink:href="#ArialMT-20"/>
      <use x="255.615234" xlink:href="#ArialMT-32"/>
      <use x="311.230469" xlink:href="#ArialMT-30"/>
      <use x="366.845703" xlink:href="#ArialMT-31"/>
      <use x="422.460938" xlink:href="#ArialMT-30"/>
     </g>
    </g>
    <g id="PathCollection_3">
     <g>
      <use style="fill:#008000;fill-opacity:0.6;stroke:#008000;stroke-opacity:0.6;" x="120.4" xlink:href="#m59cf74dcc2" y="130.685"/>
     </g>
    </g>
    <g id="text_10">
     <!-- New Data -->
     <defs>
      <path d="M 7.625 0 
L 7.625 71.578125 
L 17.328125 71.578125 
L 54.9375 15.375 
L 54.9375 71.578125 
L 64.015625 71.578125 
L 64.015625 0 
L 54.296875 0 
L 16.703125 56.25 
L 16.703125 0 
z
" id="ArialMT-4e"/>
      <path d="M 42.09375 16.703125 
L 51.171875 15.578125 
Q 49.03125 7.625 43.21875 3.21875 
Q 37.40625 -1.171875 28.375 -1.171875 
Q 17 -1.171875 10.328125 5.828125 
Q 3.65625 12.84375 3.65625 25.484375 
Q 3.65625 38.578125 10.390625 45.796875 
Q 17.140625 53.03125 27.875 53.03125 
Q 38.28125 53.03125 44.875 45.953125 
Q 51.46875 38.875 51.46875 26.03125 
Q 51.46875 25.25 51.421875 23.6875 
L 12.75 23.6875 
Q 13.234375 15.140625 17.578125 10.59375 
Q 21.921875 6.0625 28.421875 6.0625 
Q 33.25 6.0625 36.671875 8.59375 
Q 40.09375 11.140625 42.09375 16.703125 
z
M 13.234375 30.90625 
L 42.1875 30.90625 
Q 41.609375 37.453125 38.875 40.71875 
Q 34.671875 45.796875 27.984375 45.796875 
Q 21.921875 45.796875 17.796875 41.75 
Q 13.671875 37.703125 13.234375 30.90625 
z
" id="ArialMT-65"/>
      <path d="M 16.15625 0 
L 0.296875 51.859375 
L 9.375 51.859375 
L 17.625 21.921875 
L 20.703125 10.796875 
Q 20.90625 11.625 23.390625 21.484375 
L 31.640625 51.859375 
L 40.671875 51.859375 
L 48.4375 21.78125 
L 51.03125 11.859375 
L 54 21.875 
L 62.890625 51.859375 
L 71.4375 51.859375 
L 55.21875 0 
L 46.09375 0 
L 37.84375 31.0625 
L 35.84375 39.890625 
L 25.34375 0 
z
" id="ArialMT-77"/>
      <path d="M 7.71875 0 
L 7.71875 71.578125 
L 32.375 71.578125 
Q 40.71875 71.578125 45.125 70.5625 
Q 51.265625 69.140625 55.609375 65.4375 
Q 61.28125 60.640625 64.078125 53.1875 
Q 66.890625 45.75 66.890625 36.1875 
Q 66.890625 28.03125 64.984375 21.734375 
Q 63.09375 15.4375 60.109375 11.296875 
Q 57.125 7.171875 53.578125 4.796875 
Q 50.046875 2.4375 45.046875 1.21875 
Q 40.046875 0 33.546875 0 
z
M 17.1875 8.453125 
L 32.46875 8.453125 
Q 39.546875 8.453125 43.578125 9.765625 
Q 47.609375 11.078125 50 13.484375 
Q 53.375 16.84375 55.25 22.53125 
Q 57.125 28.21875 57.125 36.328125 
Q 57.125 47.5625 53.4375 53.59375 
Q 49.75 59.625 44.484375 61.671875 
Q 40.671875 63.140625 32.234375 63.140625 
L 17.1875 63.140625 
z
" id="ArialMT-44"/>
      <path d="M 25.78125 7.859375 
L 27.046875 0.09375 
Q 23.34375 -0.6875 20.40625 -0.6875 
Q 15.625 -0.6875 12.984375 0.828125 
Q 10.359375 2.34375 9.28125 4.8125 
Q 8.203125 7.28125 8.203125 15.1875 
L 8.203125 45.015625 
L 1.765625 45.015625 
L 1.765625 51.859375 
L 8.203125 51.859375 
L 8.203125 64.703125 
L 16.9375 69.96875 
L 16.9375 51.859375 
L 25.78125 51.859375 
L 25.78125 45.015625 
L 16.9375 45.015625 
L 16.9375 14.703125 
Q 16.9375 10.9375 17.40625 9.859375 
Q 17.875 8.796875 18.921875 8.15625 
Q 19.96875 7.515625 21.921875 7.515625 
Q 23.390625 7.515625 25.78125 7.859375 
z
" id="ArialMT-74"/>
     </defs>
     <g style="fill:#262626;" transform="translate(149.2 134.885)scale(0.16 -0.16)">
      <use xlink:href="#ArialMT-4e"/>
      <use x="72.216797" xlink:href="#ArialMT-65"/>
      <use x="127.832031" xlink:href="#ArialMT-77"/>
      <use x="200.048828" xlink:href="#ArialMT-20"/>
      <use x="227.832031" xlink:href="#ArialMT-44"/>
      <use x="300.048828" xlink:href="#ArialMT-61"/>
      <use x="355.664062" xlink:href="#ArialMT-74"/>
      <use x="383.447266" xlink:href="#ArialMT-61"/>
     </g>
    </g>
   </g>
   <g id="PathCollection_4">
    <g clip-path="url(#p5e51cabfa2)">
     <use style="fill:#bf00bf;fill-opacity:0.6;stroke:#bf00bf;stroke-opacity:0.6;" x="611.67928" xlink:href="#m3ea631156e" y="369.202905"/>
     <use style="fill:#bf00bf;fill-opacity:0.6;stroke:#bf00bf;stroke-opacity:0.6;" x="512.928802" xlink:href="#m3ea631156e" y="246.321764"/>
     <use style="fill:#bf00bf;fill-opacity:0.6;stroke:#bf00bf;stroke-opacity:0.6;" x="509.936844" xlink:href="#m3ea631156e" y="245.865124"/>
     <use style="fill:#bf00bf;fill-opacity:0.6;stroke:#bf00bf;stroke-opacity:0.6;" x="533.284051" xlink:href="#m3ea631156e" y="221.640309"/>
     <use style="fill:#bf00bf;fill-opacity:0.6;stroke:#bf00bf;stroke-opacity:0.6;" x="514.397525" xlink:href="#m3ea631156e" y="243.161771"/>
     <use style="fill:#bf00bf;fill-opacity:0.6;stroke:#bf00bf;stroke-opacity:0.6;" x="452.380008" xlink:href="#m3ea631156e" y="289.474546"/>
     <use style="fill:#bf00bf;fill-opacity:0.6;stroke:#bf00bf;stroke-opacity:0.6;" x="499.668905" xlink:href="#m3ea631156e" y="260.913309"/>
     <use style="fill:#bf00bf;fill-opacity:0.6;stroke:#bf00bf;stroke-opacity:0.6;" x="498.009041" xlink:href="#m3ea631156e" y="255.846383"/>
     <use style="fill:#bf00bf;fill-opacity:0.6;stroke:#bf00bf;stroke-opacity:0.6;" x="467.796255" xlink:href="#m3ea631156e" y="292.818714"/>
     <use style="fill:#bf00bf;fill-opacity:0.6;stroke:#bf00bf;stroke-opacity:0.6;" x="430.410157" xlink:href="#m3ea631156e" y="328.141717"/>
     <use style="fill:#bf00bf;fill-opacity:0.6;stroke:#bf00bf;stroke-opacity:0.6;" x="340.897219" xlink:href="#m3ea631156e" y="485.19736"/>
     <use style="fill:#bf00bf;fill-opacity:0.6;stroke:#bf00bf;stroke-opacity:0.6;" x="374.911814" xlink:href="#m3ea631156e" y="429.847431"/>
     <use style="fill:#bf00bf;fill-opacity:0.6;stroke:#bf00bf;stroke-opacity:0.6;" x="549.072813" xlink:href="#m3ea631156e" y="288.162963"/>
     <use style="fill:#bf00bf;fill-opacity:0.6;stroke:#bf00bf;stroke-opacity:0.6;" x="513.297656" xlink:href="#m3ea631156e" y="276.380047"/>
     <use style="fill:#bf00bf;fill-opacity:0.6;stroke:#bf00bf;stroke-opacity:0.6;" x="463.983908" xlink:href="#m3ea631156e" y="206.017379"/>
     <use style="fill:#bf00bf;fill-opacity:0.6;stroke:#bf00bf;stroke-opacity:0.6;" x="378.325228" xlink:href="#m3ea631156e" y="334.727398"/>
    </g>
   </g>
  </g>
 </g>
 <defs>
  <clipPath id="p5e51cabfa2">
   <rect height="543.6" width="558" x="90" y="86.4"/>
  </clipPath>
 </defs>
</svg>
